<svg xmlns="http://www.w3.org/2000/svg" version="1.1" xmlns:xlink="http://www.w3.org/1999/xlink" xmlns:svgjs="http://svgjs.dev/svgjs" width="128" height="128" viewBox="0 0 128 128"><g transform="matrix(0.8046875,0,0,0.8046875,12.31516506382006,12.360446011513154)"><svg viewBox="0 0 94 95" data-background-color="#000000" preserveAspectRatio="xMidYMid meet" height="129" width="128" xmlns="http://www.w3.org/2000/svg" xmlns:xlink="http://www.w3.org/1999/xlink"><g id="tight-bounds" transform="matrix(1,0,0,1,0.16868431068849077,-0.24049999999999727)"><svg viewBox="0 0 93.66263137862302 95.481" height="95.481" width="93.66263137862302"><g><svg viewBox="0 0 93.66263137862302 95.481" height="95.481" width="93.66263137862302"><g><svg viewBox="0 0 93.66263137862302 95.481" height="95.481" width="93.66263137862302"><g id="textblocktransform"><svg viewBox="0 0 93.66263137862302 95.481" height="95.481" width="93.66263137862302" id="textblock"><g><svg viewBox="0 0 93.66263137862302 95.481" height="95.481" width="93.66263137862302"><g><svg viewBox="0 0 93.66263137862302 95.481" height="95.481" width="93.66263137862302"><g><svg xmlns="http://www.w3.org/2000/svg" xmlns:xlink="http://www.w3.org/1999/xlink" version="1.1" x="0" y="0" viewBox="3.9169190261187916 3.6019999999999994 91.16708097388121 92.93700091853135" enable-background="new 0 0 100 100" xml:space="preserve" height="95.481" width="93.66263137862302" class="icon-icon-0" data-fill-palette-color="accent" id="icon-0"><g fill="#ffffff" data-fill-palette-color="accent"><g fill="#ffffff" data-fill-palette-color="accent"><path fill="#ffffff" d="M73.706 86.886h-1.472c-0.79 0-1.43 0.001-1.43-0.787 0-0.723 0.536-1.318 1.229-1.415 0.021-0.002 0.044-0.006 0.066-0.008 0 0.002 0 0.005 0 0.006 0 0.007 0 0.012 0.003 0.02 0.004 0.031 0.014 0.066 0.029 0.096 0.105 0.266 0.444 0.766 0.646 1.049l0.04-0.588c-0.06-0.033-0.108-0.081-0.142-0.138-0.023-0.044-0.037-0.087-0.037-0.133 0 0 0.148 0.067 0.301 0.067s0.301-0.067 0.301-0.067c0 0.049-0.016 0.099-0.044 0.142-0.031 0.053-0.078 0.101-0.136 0.129l0.042 0.574c0.213-0.274 0.557-0.739 0.681-1.004 0.026-0.039 0.042-0.085 0.046-0.127 0.001-0.008 0.001-0.013 0.001-0.018 0-0.002 0-0.003 0-0.008 0.048 0.006 0.092 0.013 0.134 0.021 0.663 0.123 1.165 0.704 1.165 1.401C75.134 86.887 74.493 86.886 73.706 86.886zM80.792 87.143h-2.831c-0.281 0-0.512-0.228-0.512-0.511 0-0.279 0.229-0.507 0.512-0.507h2.831c0.281 0 0.508 0.226 0.508 0.507C81.302 86.916 81.074 87.143 80.792 87.143zM80.792 84.25h-2.831c-0.281 0-0.512-0.227-0.512-0.509 0-0.279 0.229-0.507 0.512-0.507h2.831c0.281 0 0.508 0.228 0.508 0.507C81.3 84.023 81.074 84.25 80.792 84.25z" data-fill-palette-color="accent"></path><path fill="#ffffff" d="M80.792 83.234h-2.831c-0.281 0-0.512 0.228-0.512 0.507 0 0.282 0.229 0.509 0.512 0.509h2.831c0.281 0 0.508-0.227 0.508-0.509C81.3 83.461 81.074 83.234 80.792 83.234z" data-fill-palette-color="accent"></path><path fill="#ffffff" d="M80.792 86.125h-2.831c-0.281 0-0.512 0.227-0.512 0.508 0 0.283 0.229 0.511 0.512 0.511h2.831c0.281 0 0.508-0.228 0.508-0.511C81.302 86.351 81.074 86.125 80.792 86.125z" data-fill-palette-color="accent"></path><path fill="#ffffff" d="M71.89 83.445c0 0.013 0 0.02 0 0.031 0.071 0.778 0.529 1.383 1.08 1.383 0.56 0 1.021-0.618 1.081-1.414 0.006-0.06 0.013-0.116 0.013-0.175 0-0.063-0.007-0.119-0.013-0.178-0.082-0.55-0.534-0.977-1.081-0.977-0.548 0-1.002 0.427-1.08 0.979-0.009 0.056-0.014 0.115-0.014 0.175 0 0.022 0 0.049 0.002 0.071C71.881 83.376 71.882 83.412 71.89 83.445zM72.294 82.824c0 0 0.757 0.368 1.263 0 0 0 0.304 0.479 0.221 0.666l0.151-0.177c0 0.046-0.004 0.092-0.012 0.138-0.051 0.696-0.458 1.238-0.949 1.238-0.481 0-0.883-0.524-0.944-1.208 0.043 0.014 0.093 0.035 0.152 0.073C72.176 83.557 72.068 82.915 72.294 82.824z" data-fill-palette-color="accent"></path><path fill="#ffffff" d="M73.972 84.694c-0.046-0.006-0.089-0.013-0.136-0.018 0 0.002 0 0.005 0 0.006 0 0.007 0 0.012-0.002 0.017-0.001 0.045-0.018 0.087-0.044 0.127-0.126 0.268-0.47 0.729-0.682 1.007l-0.041-0.574c0.055-0.028 0.102-0.077 0.135-0.129 0.026-0.043 0.044-0.093 0.044-0.142 0 0-0.147 0.067-0.303 0.067-0.149 0-0.301-0.067-0.301-0.067 0 0.046 0.014 0.089 0.039 0.133 0.03 0.057 0.082 0.104 0.14 0.138l-0.041 0.588c-0.198-0.283-0.539-0.783-0.646-1.049-0.015-0.029-0.022-0.064-0.028-0.096 0-0.008-0.001-0.013-0.001-0.02 0-0.001 0-0.004 0-0.006-0.023 0.002-0.046 0.005-0.068 0.008-0.695 0.097-1.228 0.693-1.228 1.415 0 0.788 0.64 0.787 1.429 0.787h1.473c0.787 0 1.429 0.001 1.429-0.787C75.134 85.402 74.632 84.82 73.972 84.694z" data-fill-palette-color="accent"></path></g><g fill="#ffffff" data-fill-palette-color="accent"><path fill="#ffffff" d="M40.645 57.251c0 0.002 0 0.003 0 0.003 0 0.01 0.003 0.02 0.003 0.025 0.071 0.592 0.246 1.163 0.521 1.716 0 0 0 0 0-0.003-0.268-0.675-0.446-1.258-0.524-1.738C40.645 57.254 40.645 57.253 40.645 57.251z" data-fill-palette-color="accent"></path><path fill="#ffffff" d="M40.605 56.926c-0.002-0.034-0.006-0.073-0.008-0.104-0.002 0-0.002 0-0.002 0 0 0.035 0.01 0.074 0.012 0.109C40.605 56.932 40.605 56.93 40.605 56.926z" data-fill-palette-color="accent"></path><path fill="#ffffff" d="M74.182 57.159c-0.79-0.148-1.596-0.262-2.41-0.336H71.77h-0.002c0 0.022-0.004 0.046-0.005 0.069-0.005 0.012-0.006 0.024-0.006 0.036 0 0.005-0.002 0.013-0.002 0.021-0.004 0.045-0.009 0.087-0.016 0.13-0.005 0.046-0.006 0.087-0.016 0.133 0 0.002 0 0.002 0 0.002 0 0.003 0 0.005 0 0.005-0.103 0.604-0.385 1.384-0.818 2.294v0.002c-2.255 4.774-8.429 13.103-12.248 18.072l-0.722-10.344c0.987-0.511 1.841-1.331 2.422-2.283 0.48-0.788 0.779-1.669 0.779-2.563 0 0-2.685 1.185-5.419 1.185-2.737 0-5.419-1.185-5.419-1.185 0 0.825 0.255 1.64 0.672 2.381 0.577 1.034 1.48 1.925 2.53 2.466l-0.743 10.613c-3.595-5.111-9.697-14.111-11.584-18.861-0.28-0.562-0.461-1.145-0.528-1.744-0.012-0.107-0.03-0.211-0.034-0.319-0.004-0.035-0.013-0.074-0.016-0.109 0.002 0 0.002 0 0.004 0 0 0-0.001 0-0.004 0l0 0c-0.198 0.018-0.396 0.043-0.592 0.067-0.197 0.022-0.393 0.042-0.588 0.067-0.012 0.002-0.022 0.002-0.034 0.007-12.488 1.739-22.1 12.459-22.1 25.428 0 14.182 11.497 14.146 25.678 14.146h26.447c14.18 0 25.678 0.035 25.678-14.146C95.083 69.842 86.08 59.395 74.182 57.159zM83.227 87.874c0 0.887-0.72 1.604-1.605 1.604H70.712c-0.887 0-1.603-0.718-1.603-1.604v-6.739c0-0.886 0.716-1.604 1.603-1.604h10.912c0.885 0 1.603 0.719 1.603 1.604V87.874z" data-fill-palette-color="accent"></path><path fill="#ffffff" d="M36.066 31.116h0.013 0.461c0 0.143-0.005 0.283-0.005 0.427 0 0.434 0.017 0.862 0.039 1.291 0.038 0.623 0.098 1.24 0.184 1.847 0.014 0.185 0.03 0.37 0.046 0.555 1.24 14.019 9.438 24.847 19.374 24.847 10.064 0 18.35-11.109 19.422-25.393 0.148-1.026 0.226-2.077 0.226-3.146 0-0.144-0.005-0.285-0.009-0.428h0.549 0.012c1.623 0 5.504-1.313 5.504-2.936 0-1.623-3.884-2.937-5.504-2.937h-0.012c-1.079-7.472-5.895-14.807-12.782-18.072l-0.397 5.249-0.278 3.389L62.397 15.8l0.267-3.778 0.371-5.277 0.077-1.086L59.89 5.522 59.886 5.65l-0.173 5.549-0.142 4.476-0.007 0.265-0.257 8.222h-0.557l0.358-13.065 0.152-5.582 0.053-1.913h-7.059l0.057 2.111 0.154 5.523 0.353 12.925h-0.557l-0.259-8.227-0.007-0.264-0.135-4.302-0.172-5.483-0.012-0.371-3.346 0.143 0.108 1.565 0.364 5.154 0.24 3.422-0.513 0.008-0.252-3.023-0.386-5.122c-6.396 3.497-10.783 10.462-11.813 17.58h-0.013c-1.621 0-5.502 1.313-5.502 2.937C30.563 29.801 34.444 31.116 36.066 31.116zM41.451 31.116h28.956c0.525 1.684 0.747 3.285 0.261 4.359l2.758-3.167c-0.013 0.84-0.076 1.67-0.194 2.478-0.939 12.54-8.214 22.293-17.052 22.293-8.69 0-15.871-9.439-16.998-21.686 0.765 0.191 1.704 0.563 2.723 1.276C41.904 36.666 41.465 34.039 41.451 31.116z" data-fill-palette-color="accent"></path></g></g><path d="M28.008 42.519l-1.543-1.044-2.597 3.839-2.668 0.516-2.293-1.547-0.516-2.672 2.596-3.839-1.546-1.044c-1.66 0.391-3.184 1.383-4.213 2.906-1.594 2.357-1.563 5.332-0.169 7.61L4.417 62.988c-0.9 1.331-0.553 3.145 0.782 4.046 1.333 0.899 3.147 0.553 4.047-0.783l10.642-15.744c2.629 0.442 5.401-0.638 6.996-2.992C27.914 45.987 28.267 44.206 28.008 42.519zM6.043 65.786c-0.642-0.437-0.813-1.311-0.38-1.956 0.437-0.644 1.311-0.813 1.956-0.373 0.646 0.431 0.813 1.308 0.379 1.948C7.56 66.052 6.688 66.221 6.043 65.786z" fill="#ffffff" data-fill-palette-color="accent"></path></svg></g></svg></g></svg></g></svg></g></svg></g><g></g></svg></g><defs></defs></svg><rect width="93.66263137862302" height="95.481" fill="none" stroke="none" visibility="hidden"></rect></g></svg></g></svg>