<svg xmlns="http://www.w3.org/2000/svg" version="1.1" xmlns:xlink="http://www.w3.org/1999/xlink" xmlns:svgjs="http://svgjs.dev/svgjs" width="2000" height="2000" viewBox="0 0 2000 2000"><g transform="matrix(1,0,0,1,0,0)"><svg viewBox="0 0 280 280" data-background-color="#000000" preserveAspectRatio="xMidYMid meet" height="2000" width="2000" xmlns="http://www.w3.org/2000/svg" xmlns:xlink="http://www.w3.org/1999/xlink"><g id="tight-bounds" transform="matrix(1,0,0,1,0,0)"><svg viewBox="0 0 280 280" height="280" width="280"><g><svg viewBox="0 0 280 280" height="280" width="280"><g><svg viewBox="0 0 280 280" height="280" width="280"><g id="textblocktransform"><svg viewBox="0 0 280 280" height="280" width="280" id="textblock"><g><svg viewBox="0 0 280 280" height="280" width="280"><g transform="matrix(1,0,0,1,75.26022663619612,74.00336708925556)"><svg viewBox="0 0 129.47954672760775 131.99326582148888" height="131.99326582148888" width="129.47954672760775"><g id="icon-0"><svg xmlns="http://www.w3.org/2000/svg" xmlns:xlink="http://www.w3.org/1999/xlink" version="1.1" x="0" y="0" viewBox="3.9169190261187916 3.6019999999999994 91.16708097388121 92.93700091853135" enable-background="new 0 0 100 100" xml:space="preserve" height="131.99326582148888" width="129.47954672760775" class="icon-xg-0" data-fill-palette-color="accent" id="xg-0"><g fill="#ffffff" data-fill-palette-color="accent"><g fill="#ffffff" data-fill-palette-color="accent"><path fill="#ffffff" d="M73.706 86.886h-1.472c-0.79 0-1.43 0.001-1.43-0.787 0-0.723 0.536-1.318 1.229-1.415 0.021-0.002 0.044-0.006 0.066-0.008 0 0.002 0 0.005 0 0.006 0 0.007 0 0.012 0.003 0.02 0.004 0.031 0.014 0.066 0.029 0.096 0.105 0.266 0.444 0.766 0.646 1.049l0.04-0.588c-0.06-0.033-0.108-0.081-0.142-0.138-0.023-0.044-0.037-0.087-0.037-0.133 0 0 0.148 0.067 0.301 0.067s0.301-0.067 0.301-0.067c0 0.049-0.016 0.099-0.044 0.142-0.031 0.053-0.078 0.101-0.136 0.129l0.042 0.574c0.213-0.274 0.557-0.739 0.681-1.004 0.026-0.039 0.042-0.085 0.046-0.127 0.001-0.008 0.001-0.013 0.001-0.018 0-0.002 0-0.003 0-0.008 0.048 0.006 0.092 0.013 0.134 0.021 0.663 0.123 1.165 0.704 1.165 1.401C75.134 86.887 74.493 86.886 73.706 86.886zM80.792 87.143h-2.831c-0.281 0-0.512-0.228-0.512-0.511 0-0.279 0.229-0.507 0.512-0.507h2.831c0.281 0 0.508 0.226 0.508 0.507C81.302 86.916 81.074 87.143 80.792 87.143zM80.792 84.25h-2.831c-0.281 0-0.512-0.227-0.512-0.509 0-0.279 0.229-0.507 0.512-0.507h2.831c0.281 0 0.508 0.228 0.508 0.507C81.3 84.023 81.074 84.25 80.792 84.25z" data-fill-palette-color="accent"></path><path fill="#ffffff" d="M80.792 83.234h-2.831c-0.281 0-0.512 0.228-0.512 0.507 0 0.282 0.229 0.509 0.512 0.509h2.831c0.281 0 0.508-0.227 0.508-0.509C81.3 83.461 81.074 83.234 80.792 83.234z" data-fill-palette-color="accent"></path><path fill="#ffffff" d="M80.792 86.125h-2.831c-0.281 0-0.512 0.227-0.512 0.508 0 0.283 0.229 0.511 0.512 0.511h2.831c0.281 0 0.508-0.228 0.508-0.511C81.302 86.351 81.074 86.125 80.792 86.125z" data-fill-palette-color="accent"></path><path fill="#ffffff" d="M71.89 83.445c0 0.013 0 0.02 0 0.031 0.071 0.778 0.529 1.383 1.08 1.383 0.56 0 1.021-0.618 1.081-1.414 0.006-0.06 0.013-0.116 0.013-0.175 0-0.063-0.007-0.119-0.013-0.178-0.082-0.55-0.534-0.977-1.081-0.977-0.548 0-1.002 0.427-1.08 0.979-0.009 0.056-0.014 0.115-0.014 0.175 0 0.022 0 0.049 0.002 0.071C71.881 83.376 71.882 83.412 71.89 83.445zM72.294 82.824c0 0 0.757 0.368 1.263 0 0 0 0.304 0.479 0.221 0.666l0.151-0.177c0 0.046-0.004 0.092-0.012 0.138-0.051 0.696-0.458 1.238-0.949 1.238-0.481 0-0.883-0.524-0.944-1.208 0.043 0.014 0.093 0.035 0.152 0.073C72.176 83.557 72.068 82.915 72.294 82.824z" data-fill-palette-color="accent"></path><path fill="#ffffff" d="M73.972 84.694c-0.046-0.006-0.089-0.013-0.136-0.018 0 0.002 0 0.005 0 0.006 0 0.007 0 0.012-0.002 0.017-0.001 0.045-0.018 0.087-0.044 0.127-0.126 0.268-0.47 0.729-0.682 1.007l-0.041-0.574c0.055-0.028 0.102-0.077 0.135-0.129 0.026-0.043 0.044-0.093 0.044-0.142 0 0-0.147 0.067-0.303 0.067-0.149 0-0.301-0.067-0.301-0.067 0 0.046 0.014 0.089 0.039 0.133 0.03 0.057 0.082 0.104 0.14 0.138l-0.041 0.588c-0.198-0.283-0.539-0.783-0.646-1.049-0.015-0.029-0.022-0.064-0.028-0.096 0-0.008-0.001-0.013-0.001-0.02 0-0.001 0-0.004 0-0.006-0.023 0.002-0.046 0.005-0.068 0.008-0.695 0.097-1.228 0.693-1.228 1.415 0 0.788 0.64 0.787 1.429 0.787h1.473c0.787 0 1.429 0.001 1.429-0.787C75.134 85.402 74.632 84.82 73.972 84.694z" data-fill-palette-color="accent"></path></g><g fill="#ffffff" data-fill-palette-color="accent"><path fill="#ffffff" d="M40.645 57.251c0 0.002 0 0.003 0 0.003 0 0.01 0.003 0.02 0.003 0.025 0.071 0.592 0.246 1.163 0.521 1.716 0 0 0 0 0-0.003-0.268-0.675-0.446-1.258-0.524-1.738C40.645 57.254 40.645 57.253 40.645 57.251z" data-fill-palette-color="accent"></path><path fill="#ffffff" d="M40.605 56.926c-0.002-0.034-0.006-0.073-0.008-0.104-0.002 0-0.002 0-0.002 0 0 0.035 0.01 0.074 0.012 0.109C40.605 56.932 40.605 56.93 40.605 56.926z" data-fill-palette-color="accent"></path><path fill="#ffffff" d="M74.182 57.159c-0.79-0.148-1.596-0.262-2.41-0.336H71.77h-0.002c0 0.022-0.004 0.046-0.005 0.069-0.005 0.012-0.006 0.024-0.006 0.036 0 0.005-0.002 0.013-0.002 0.021-0.004 0.045-0.009 0.087-0.016 0.13-0.005 0.046-0.006 0.087-0.016 0.133 0 0.002 0 0.002 0 0.002 0 0.003 0 0.005 0 0.005-0.103 0.604-0.385 1.384-0.818 2.294v0.002c-2.255 4.774-8.429 13.103-12.248 18.072l-0.722-10.344c0.987-0.511 1.841-1.331 2.422-2.283 0.48-0.788 0.779-1.669 0.779-2.563 0 0-2.685 1.185-5.419 1.185-2.737 0-5.419-1.185-5.419-1.185 0 0.825 0.255 1.64 0.672 2.381 0.577 1.034 1.48 1.925 2.53 2.466l-0.743 10.613c-3.595-5.111-9.697-14.111-11.584-18.861-0.28-0.562-0.461-1.145-0.528-1.744-0.012-0.107-0.03-0.211-0.034-0.319-0.004-0.035-0.013-0.074-0.016-0.109 0.002 0 0.002 0 0.004 0 0 0-0.001 0-0.004 0l0 0c-0.198 0.018-0.396 0.043-0.592 0.067-0.197 0.022-0.393 0.042-0.588 0.067-0.012 0.002-0.022 0.002-0.034 0.007-12.488 1.739-22.1 12.459-22.1 25.428 0 14.182 11.497 14.146 25.678 14.146h26.447c14.18 0 25.678 0.035 25.678-14.146C95.083 69.842 86.08 59.395 74.182 57.159zM83.227 87.874c0 0.887-0.72 1.604-1.605 1.604H70.712c-0.887 0-1.603-0.718-1.603-1.604v-6.739c0-0.886 0.716-1.604 1.603-1.604h10.912c0.885 0 1.603 0.719 1.603 1.604V87.874z" data-fill-palette-color="accent"></path><path fill="#ffffff" d="M36.066 31.116h0.013 0.461c0 0.143-0.005 0.283-0.005 0.427 0 0.434 0.017 0.862 0.039 1.291 0.038 0.623 0.098 1.24 0.184 1.847 0.014 0.185 0.03 0.37 0.046 0.555 1.24 14.019 9.438 24.847 19.374 24.847 10.064 0 18.35-11.109 19.422-25.393 0.148-1.026 0.226-2.077 0.226-3.146 0-0.144-0.005-0.285-0.009-0.428h0.549 0.012c1.623 0 5.504-1.313 5.504-2.936 0-1.623-3.884-2.937-5.504-2.937h-0.012c-1.079-7.472-5.895-14.807-12.782-18.072l-0.397 5.249-0.278 3.389L62.397 15.8l0.267-3.778 0.371-5.277 0.077-1.086L59.89 5.522 59.886 5.65l-0.173 5.549-0.142 4.476-0.007 0.265-0.257 8.222h-0.557l0.358-13.065 0.152-5.582 0.053-1.913h-7.059l0.057 2.111 0.154 5.523 0.353 12.925h-0.557l-0.259-8.227-0.007-0.264-0.135-4.302-0.172-5.483-0.012-0.371-3.346 0.143 0.108 1.565 0.364 5.154 0.24 3.422-0.513 0.008-0.252-3.023-0.386-5.122c-6.396 3.497-10.783 10.462-11.813 17.58h-0.013c-1.621 0-5.502 1.313-5.502 2.937C30.563 29.801 34.444 31.116 36.066 31.116zM41.451 31.116h28.956c0.525 1.684 0.747 3.285 0.261 4.359l2.758-3.167c-0.013 0.84-0.076 1.67-0.194 2.478-0.939 12.54-8.214 22.293-17.052 22.293-8.69 0-15.871-9.439-16.998-21.686 0.765 0.191 1.704 0.563 2.723 1.276C41.904 36.666 41.465 34.039 41.451 31.116z" data-fill-palette-color="accent"></path></g></g><path d="M28.008 42.519l-1.543-1.044-2.597 3.839-2.668 0.516-2.293-1.547-0.516-2.672 2.596-3.839-1.546-1.044c-1.66 0.391-3.184 1.383-4.213 2.906-1.594 2.357-1.563 5.332-0.169 7.61L4.417 62.988c-0.9 1.331-0.553 3.145 0.782 4.046 1.333 0.899 3.147 0.553 4.047-0.783l10.642-15.744c2.629 0.442 5.401-0.638 6.996-2.992C27.914 45.987 28.267 44.206 28.008 42.519zM6.043 65.786c-0.642-0.437-0.813-1.311-0.38-1.956 0.437-0.644 1.311-0.813 1.956-0.373 0.646 0.431 0.813 1.308 0.379 1.948C7.56 66.052 6.688 66.221 6.043 65.786z" fill="#ffffff" data-fill-palette-color="accent"></path></svg></g></svg></g><g id="text-0"><path d="M3.007 104.699l5.56-16.439 3.629 1.825-1.829 5.41 22.536 7.622-1.639 4.846-22.536-7.622-1.91 5.646z" fill="#ffffff" data-fill-palette-color="primary"></path><path d="M25.216 69.532c1.41-2.281 3.304-3.563 5.682-3.844 2.383-0.278 5.149 0.556 8.297 2.502v0c3.013 1.863 4.97 3.956 5.869 6.28 0.899 2.323 0.651 4.614-0.745 6.873v0c-1.397 2.259-3.318 3.515-5.765 3.77-2.447 0.255-5.21-0.57-8.291-2.475v0c-3.059-1.891-5.015-3.984-5.869-6.28-0.849-2.292-0.575-4.567 0.822-6.826zM28.401 71.502c-0.606 0.98-0.567 2.001 0.116 3.061 0.687 1.055 2.171 2.288 4.452 3.699v0c2.304 1.424 4.084 2.21 5.34 2.355 1.254 0.137 2.185-0.284 2.79-1.264v0c0.606-0.98 0.566-1.998-0.121-3.053-0.692-1.059-2.19-2.3-4.494-3.725v0c-2.304-1.424-4.075-2.204-5.315-2.34-1.24-0.136-2.162 0.286-2.768 1.267z" fill="#ffffff" data-fill-palette-color="primary"></path><path d="M54.63 37.276l3.38-3.104 11.709 18.163-4.448 4.086-13.105-10.757 9.637 13.942-4.418 4.059-17.158-13.157 3.526-3.239 13.503 11.484-9.919-14.777 3.709-3.407 13.796 11.215z" fill="#ffffff" data-fill-palette-color="primary"></path><path d="M80.24 19.958c1.349-0.722 2.674-0.807 3.975-0.256 1.295 0.554 2.38 1.648 3.255 3.282v0l7.443 13.909-4.362 2.334-7.18-13.418c-0.481-0.899-0.952-1.477-1.412-1.734-0.451-0.254-0.914-0.255-1.387-0.002v0c-0.993 0.531-1.477 1.992-1.452 4.382v0l7.025 13.129-4.361 2.334-10.048-18.778 3.801-2.034 1.627 2.284c0.105-1.333 0.39-2.436 0.855-3.308 0.465-0.872 1.205-1.58 2.221-2.124z" fill="#ffffff" data-fill-palette-color="primary"></path><path d="M119.466 1.52l17.287-1.52-0.212 4.057-5.69 0.5 2.084 23.699-5.096 0.448-2.084-23.699-5.937 0.522z" fill="#ffffff" data-fill-palette-color="primary"></path><path d="M164.272 25.037c-0.095 0.695-0.074 1.22 0.065 1.573 0.138 0.36 0.405 0.674 0.803 0.942v0l-1.444 3.141c-1.07-0.287-1.903-0.699-2.497-1.235-0.587-0.542-0.975-1.3-1.162-2.275v0c-1.504 1.852-3.359 2.627-5.563 2.325v0c-1.758-0.241-3.074-1.027-3.948-2.357-0.875-1.323-1.177-2.969-0.906-4.937v0c0.313-2.283 1.264-3.927 2.852-4.933 1.588-0.999 3.736-1.312 6.446-0.94v0l1.634 0.224 0.202-1.476c0.182-1.325 0.077-2.292-0.314-2.9-0.384-0.614-1.097-0.993-2.14-1.136v0c-1.247-0.171-2.849-0.037-4.808 0.402v0l-0.674-3.341c1.129-0.333 2.281-0.549 3.458-0.648 1.176-0.093 2.285-0.067 3.328 0.076v0c4.625 0.635 6.617 3.291 5.975 7.969v0zM156.28 26.136c1.273 0.175 2.361-0.568 3.264-2.229v0l0.608-4.429-1.152-0.158c-1.358-0.186-2.391-0.017-3.097 0.508-0.707 0.525-1.148 1.427-1.324 2.705v0c-0.149 1.089-0.079 1.938 0.212 2.546 0.297 0.609 0.794 0.961 1.489 1.057z" fill="#ffffff" data-fill-palette-color="primary"></path><path d="M189.617 15.39c2.356 0.902 4.051 2.441 5.083 4.616v0l-2.734 1.836c-0.507-0.768-1.026-1.396-1.556-1.883-0.534-0.495-1.125-0.867-1.774-1.115v0c-0.724-0.277-1.367-0.3-1.931-0.069-0.564 0.231-0.974 0.684-1.232 1.357v0c-0.26 0.68-0.238 1.316 0.067 1.909 0.308 0.586 1.057 1.426 2.247 2.519v0c1.467 1.335 2.438 2.624 2.912 3.87 0.474 1.245 0.413 2.644-0.181 4.196v0c-0.739 1.93-1.998 3.192-3.779 3.786-1.783 0.601-3.713 0.504-5.792-0.292v0c-1.354-0.518-2.507-1.24-3.458-2.164-0.957-0.927-1.694-1.992-2.211-3.197v0l3.215-1.62c0.927 1.766 2.117 2.927 3.57 3.483v0c0.829 0.317 1.565 0.347 2.21 0.091 0.644-0.257 1.114-0.772 1.41-1.545v0c0.223-0.581 0.304-1.089 0.243-1.523-0.064-0.443-0.287-0.918-0.667-1.426-0.383-0.501-1.003-1.132-1.86-1.892v0c-1.465-1.341-2.397-2.602-2.796-3.783-0.39-1.185-0.317-2.479 0.221-3.883v0c0.644-1.682 1.768-2.84 3.372-3.474 1.604-0.634 3.411-0.566 5.421 0.203z" fill="#ffffff" data-fill-palette-color="primary"></path><path d="M215.142 19.052l4.406 2.306-16.789 25.28-4.12-2.737zM219.474 32.172l4.021 2.671-9.907 4.737-1.47 13.273-4.427-2.94 1.677-12.849z" fill="#ffffff" data-fill-palette-color="primary"></path><path d="M238.32 63.567c-0.174 0.163-0.702 0.597-1.584 1.303v0l-7.498-8.03c-1.535 1.578-2.395 2.907-2.582 3.988-0.191 1.076 0.124 2.054 0.947 2.935v0c0.569 0.61 1.187 1.062 1.851 1.356 0.664 0.304 1.486 0.529 2.465 0.675v0l-0.652 3.421c-2.619-0.127-4.826-1.152-6.62-3.073v0c-1.903-2.038-2.656-4.261-2.26-6.67 0.396-2.409 1.88-4.813 4.45-7.213v0c2.565-2.395 5.079-3.769 7.542-4.12 2.458-0.356 4.575 0.417 6.351 2.319v0c1.704 1.825 2.372 3.865 2.004 6.12-0.373 2.26-1.844 4.589-4.414 6.989zM235.875 59.232l0.204-0.19c1.471-1.374 2.381-2.554 2.728-3.54 0.348-0.986 0.155-1.871-0.576-2.655v0c-0.678-0.726-1.525-0.973-2.54-0.741-1.015 0.232-2.382 1.078-4.1 2.537v0z" fill="#ffffff" data-fill-palette-color="primary"></path><path d="M260.563 78.147c0.314 0.53 0.514 1.05 0.601 1.56v0l-4.495 1.728c-0.159-0.529-0.356-0.99-0.589-1.383v0c-0.52-0.877-1.312-1.344-2.375-1.398-1.058-0.058-2.422 0.219-4.092 0.83v0l-10.076 5.969-2.521-4.256 18.323-10.855 2.197 3.709-3.005 2.197c2.928-0.58 4.938 0.053 6.032 1.899z" fill="#ffffff" data-fill-palette-color="primary"></path><path d="M269.498 99.51c0.806 2.391 0.7 4.677-0.319 6.858v0l-3.157-0.937c0.269-0.88 0.422-1.68 0.46-2.399 0.041-0.727-0.049-1.42-0.271-2.078v0c-0.248-0.734-0.64-1.245-1.177-1.532-0.537-0.287-1.148-0.315-1.832-0.085v0c-0.69 0.233-1.166 0.655-1.428 1.268-0.255 0.61-0.425 1.723-0.51 3.338v0c-0.094 1.981-0.469 3.551-1.126 4.709-0.658 1.158-1.774 2.003-3.35 2.534v0c-1.958 0.66-3.733 0.494-5.326-0.5-1.599-0.991-2.754-2.541-3.465-4.649v0c-0.463-1.374-0.642-2.722-0.536-4.044 0.104-1.328 0.456-2.575 1.055-3.742v0l3.297 1.446c-0.771 1.839-0.907 3.496-0.409 4.971v0c0.284 0.841 0.73 1.428 1.338 1.761 0.608 0.333 1.305 0.367 2.089 0.102v0c0.59-0.199 1.033-0.46 1.329-0.783 0.3-0.332 0.525-0.806 0.674-1.422 0.142-0.614 0.234-1.494 0.273-2.64v0c0.1-1.984 0.478-3.505 1.134-4.565 0.664-1.056 1.709-1.824 3.133-2.304v0c1.707-0.576 3.316-0.447 4.826 0.385 1.511 0.832 2.61 2.268 3.298 4.308z" fill="#ffffff" data-fill-palette-color="primary"></path><path d="M36.987 169.807l6.178 17.897-4.351 0.85-2.036-5.897-24.535 8.47-1.819-5.267 24.536-8.47-2.124-6.15z" fill="#ffffff" data-fill-palette-color="primary"></path><path d="M45.587 204.808c1.552 2.481 1.891 4.957 1.014 7.427-0.874 2.461-3.024 4.762-6.448 6.905v0c-3.279 2.051-6.271 2.955-8.979 2.711-2.703-0.238-4.824-1.587-6.362-4.046v0c-1.538-2.459-1.843-4.944-0.914-7.454 0.931-2.52 3.072-4.828 6.423-6.925v0c3.324-2.079 6.313-2.981 8.97-2.706 2.658 0.266 4.757 1.629 6.296 4.088zM42.125 206.973c-0.667-1.067-1.683-1.517-3.047-1.35-1.368 0.161-3.293 1.017-5.775 2.569v0c-2.509 1.57-4.136 2.935-4.878 4.095-0.746 1.154-0.786 2.265-0.119 3.332v0c0.667 1.067 1.685 1.52 3.054 1.359 1.365-0.166 3.302-1.034 5.811-2.605v0c2.504-1.567 4.123-2.923 4.858-4.07 0.732-1.153 0.764-2.263 0.096-3.33z" fill="#ffffff" data-fill-palette-color="primary"></path><path d="M71.07 233.418l3.715 3.356-18.542 14.561-4.888-4.414 10.352-15.332-14.164 11.89-4.858-4.387 12.541-19.981 3.878 3.502-11.1 15.835 15.044-12.273 4.077 3.682-10.775 16.127z" fill="#ffffff" data-fill-palette-color="primary"></path><path d="M92.69 246.096c1.479 0.773 2.368 1.918 2.666 3.434 0.302 1.51-0.016 3.16-0.951 4.95v0l-7.975 15.256-4.789-2.504 7.69-14.71c0.515-0.986 0.75-1.764 0.704-2.333-0.052-0.573-0.336-0.994-0.852-1.264v0c-1.092-0.571-2.704-0.109-4.837 1.384v0l-7.529 14.402-4.789-2.504 10.764-20.59 4.164 2.176-1.052 2.869c1.266-0.721 2.435-1.141 3.506-1.261 1.071-0.12 2.165 0.112 3.28 0.695z" fill="#ffffff" data-fill-palette-color="primary"></path><path d="M122.162 248.739l18.865 1.604-0.986 4.323-6.215-0.529-2.199 25.863-5.552-0.472 2.198-25.863-6.483-0.551z" fill="#ffffff" data-fill-palette-color="primary"></path><path d="M166.728 272.245c0.105 0.754 0.284 1.298 0.538 1.63 0.254 0.339 0.63 0.591 1.127 0.756v0l-0.597 3.714c-1.207 0.02-2.199-0.166-2.976-0.56-0.777-0.394-1.413-1.074-1.908-2.042v0c-1.026 2.389-2.742 3.75-5.15 4.085v0c-1.915 0.266-3.526-0.166-4.833-1.295-1.308-1.136-2.11-2.776-2.408-4.921v0c-0.347-2.499 0.164-4.506 1.532-6.019 1.373-1.521 3.539-2.487 6.497-2.898v0l1.781-0.247-0.224-1.613c-0.201-1.45-0.599-2.437-1.194-2.964-0.587-0.52-1.445-0.702-2.572-0.545v0c-1.364 0.189-3.011 0.802-4.94 1.839v0l-1.694-3.315c1.082-0.685 2.23-1.252 3.445-1.702 1.208-0.448 2.376-0.751 3.504-0.907v0c5.044-0.7 7.92 1.501 8.629 6.604v0zM158.662 275.762c1.391-0.193 2.317-1.298 2.779-3.315v0l-0.67-4.831-1.26 0.175c-1.482 0.206-2.518 0.691-3.107 1.454-0.589 0.764-0.787 1.841-0.595 3.232v0c0.165 1.187 0.493 2.058 0.984 2.611 0.491 0.554 1.114 0.778 1.869 0.674z" fill="#ffffff" data-fill-palette-color="primary"></path><path d="M181.353 248.717c2.566-0.984 5.064-0.971 7.495 0.041v0l-0.873 3.494c-0.978-0.256-1.859-0.39-2.643-0.401-0.791-0.009-1.542 0.123-2.253 0.396v0c-0.791 0.304-1.332 0.752-1.622 1.346-0.288 0.6-0.29 1.268-0.008 2.003v0c0.285 0.742 0.767 1.241 1.447 1.498 0.68 0.257 1.899 0.392 3.656 0.407v0c2.168 0.013 3.898 0.353 5.189 1.02 1.289 0.662 2.259 1.84 2.909 3.534v0c0.809 2.108 0.708 4.055-0.303 5.84-1.007 1.776-2.645 3.1-4.914 3.97v0c-1.478 0.567-2.94 0.823-4.387 0.767-1.447-0.055-2.821-0.383-4.122-0.983v0l1.429-3.654c2.042 0.756 3.857 0.829 5.446 0.219v0c0.903-0.346 1.522-0.857 1.859-1.532 0.334-0.681 0.339-1.446 0.014-2.293v0c-0.24-0.624-0.548-1.095-0.924-1.411-0.368-0.313-0.893-0.534-1.573-0.663-0.675-0.131-1.638-0.194-2.892-0.189v0c-2.168-0.013-3.842-0.356-5.023-1.031-1.187-0.672-2.075-1.775-2.663-3.308v0c-0.702-1.83-0.631-3.588 0.212-5.273 0.841-1.691 2.356-2.957 4.544-3.797z" fill="#ffffff" data-fill-palette-color="primary"></path><path d="M192.396 233.927l4.186-3.465 18.295 27.607-4.505 2.985zM207.424 235.134l4.389-2.908 0.554 11.967 12.719 7.11-4.827 3.199-12.213-7.136z" fill="#ffffff" data-fill-palette-color="primary"></path><path d="M237.983 221.293c0.193 0.181 0.71 0.724 1.55 1.629v0l-8.196 8.75c1.827 1.557 3.335 2.397 4.525 2.523 1.185 0.13 2.228-0.286 3.128-1.248v0c0.62-0.662 1.066-1.365 1.337-2.11 0.28-0.745 0.463-1.657 0.55-2.738v0l3.782 0.467c0.047 2.856-0.91 5.331-2.87 7.424v0c-2.082 2.223-4.447 3.207-7.093 2.952-2.651-0.251-5.375-1.686-8.174-4.308v0c-2.803-2.626-4.485-5.267-5.045-7.923-0.565-2.652 0.124-5.015 2.066-7.089v0c1.861-1.987 4.034-2.859 6.52-2.617 2.482 0.237 5.122 1.667 7.92 4.288zM233.449 224.273l-0.224-0.21c-1.6-1.498-2.948-2.403-4.046-2.714-1.097-0.301-2.046-0.024-2.847 0.831v0c-0.738 0.788-0.946 1.727-0.624 2.818 0.326 1.086 1.347 2.509 3.063 4.271v0z" fill="#ffffff" data-fill-palette-color="primary"></path><path d="M240.552 195.905c0.346-0.58 0.742-1.042 1.187-1.386v0l3.995 3.404c-0.424 0.426-0.765 0.854-1.023 1.287v0c-0.57 0.955-0.605 1.956-0.105 3.004 0.501 1.047 1.477 2.209 2.929 3.484v0l10.976 6.555-2.771 4.64-19.948-11.914 2.409-4.034 3.675 1.732c-2.085-2.502-2.526-4.76-1.324-6.772z" fill="#ffffff" data-fill-palette-color="primary"></path><path d="M247.046 179.678c0.894-2.599 2.51-4.504 4.846-5.717v0l2.118 2.914c-0.825 0.585-1.493 1.174-2.006 1.768-0.515 0.6-0.896 1.26-1.144 1.98v0c-0.276 0.801-0.28 1.504-0.011 2.108 0.275 0.606 0.785 1.037 1.53 1.293v0c0.751 0.259 1.444 0.21 2.077-0.146 0.634-0.356 1.521-1.203 2.661-2.54v0c1.403-1.653 2.775-2.76 4.116-3.322 1.335-0.563 2.861-0.549 4.577 0.042v0c2.135 0.735 3.562 2.063 4.28 3.984 0.714 1.913 0.676 4.018-0.115 6.316v0c-0.515 1.497-1.259 2.781-2.23 3.855-0.972 1.073-2.106 1.916-3.402 2.527v0l-1.882-3.442c1.891-1.079 3.114-2.423 3.667-4.033v0c0.315-0.914 0.321-1.717 0.021-2.409-0.307-0.694-0.89-1.189-1.748-1.484v0c-0.632-0.218-1.191-0.284-1.676-0.199-0.476 0.081-0.982 0.341-1.518 0.78-0.534 0.432-1.202 1.131-2.003 2.095v0c-1.403 1.653-2.742 2.716-4.018 3.187-1.278 0.478-2.693 0.449-4.246-0.085v0c-1.853-0.638-3.155-1.821-3.905-3.551-0.756-1.731-0.752-3.705 0.011-5.921z" fill="#ffffff" data-fill-palette-color="primary"></path><path d="M3.481 143.045c0-6.402 5.19-11.592 11.592-11.593 6.402 0 11.592 5.19 11.593 11.593 0 6.402-5.19 11.592-11.593 11.592-6.402 0-11.592-5.19-11.592-11.592z" fill="#ffffff" data-fill-palette-color="primary"></path><path d="M253.808 143.045c0-6.402 5.19-11.592 11.592-11.593 6.402 0 11.592 5.19 11.593 11.593 0 6.402-5.19 11.592-11.593 11.592-6.402 0-11.592-5.19-11.592-11.592z" fill="#ffffff" data-fill-palette-color="primary"></path></g><g id="text-1"></g></svg></g></svg></g></svg></g><g></g></svg></g><defs></defs></svg><rect width="280" height="280" fill="none" stroke="none" visibility="hidden"></rect></g></svg></g></svg>