<svg xmlns="http://www.w3.org/2000/svg" version="1.1" xmlns:xlink="http://www.w3.org/1999/xlink" xmlns:svgjs="http://svgjs.dev/svgjs" width="2000" height="2000" viewBox="0 0 2000 2000"><g transform="matrix(1,0,0,1,0,0)"><svg viewBox="0 0 280 280" data-background-color="#ffffff" preserveAspectRatio="xMidYMid meet" height="2000" width="2000" xmlns="http://www.w3.org/2000/svg" xmlns:xlink="http://www.w3.org/1999/xlink"><g id="tight-bounds" transform="matrix(1,0,0,1,0,0)"><svg viewBox="0 0 280 280" height="280" width="280"><g><svg viewBox="0 0 280 280" height="280" width="280"><g><svg viewBox="0 0 280 280" height="280" width="280"><g id="textblocktransform"><svg viewBox="0 0 280 280" height="280" width="280" id="textblock"><g><svg viewBox="0 0 280 280" height="280" width="280"><g transform="matrix(1,0,0,1,75.26022663619612,74.00336708925556)"><svg viewBox="0 0 129.47954672760775 131.99326582148888" height="131.99326582148888" width="129.47954672760775"><g id="icon-0"><svg xmlns="http://www.w3.org/2000/svg" xmlns:xlink="http://www.w3.org/1999/xlink" version="1.1" x="0" y="0" viewBox="3.9169190261187916 3.6019999999999994 91.16708097388121 92.93700091853135" enable-background="new 0 0 100 100" xml:space="preserve" height="131.99326582148888" width="129.47954672760775" class="icon-xg-0" data-fill-palette-color="accent" id="xg-0"><g fill="#332885" data-fill-palette-color="accent"><g fill="#332885" data-fill-palette-color="accent"><path fill="#332885" d="M73.706 86.886h-1.472c-0.79 0-1.43 0.001-1.43-0.787 0-0.723 0.536-1.318 1.229-1.415 0.021-0.002 0.044-0.006 0.066-0.008 0 0.002 0 0.005 0 0.006 0 0.007 0 0.012 0.003 0.02 0.004 0.031 0.014 0.066 0.029 0.096 0.105 0.266 0.444 0.766 0.646 1.049l0.04-0.588c-0.06-0.033-0.108-0.081-0.142-0.138-0.023-0.044-0.037-0.087-0.037-0.133 0 0 0.148 0.067 0.301 0.067s0.301-0.067 0.301-0.067c0 0.049-0.016 0.099-0.044 0.142-0.031 0.053-0.078 0.101-0.136 0.129l0.042 0.574c0.213-0.274 0.557-0.739 0.681-1.004 0.026-0.039 0.042-0.085 0.046-0.127 0.001-0.008 0.001-0.013 0.001-0.018 0-0.002 0-0.003 0-0.008 0.048 0.006 0.092 0.013 0.134 0.021 0.663 0.123 1.165 0.704 1.165 1.401C75.134 86.887 74.493 86.886 73.706 86.886zM80.792 87.143h-2.831c-0.281 0-0.512-0.228-0.512-0.511 0-0.279 0.229-0.507 0.512-0.507h2.831c0.281 0 0.508 0.226 0.508 0.507C81.302 86.916 81.074 87.143 80.792 87.143zM80.792 84.25h-2.831c-0.281 0-0.512-0.227-0.512-0.509 0-0.279 0.229-0.507 0.512-0.507h2.831c0.281 0 0.508 0.228 0.508 0.507C81.3 84.023 81.074 84.25 80.792 84.25z" data-fill-palette-color="accent"></path><path fill="#332885" d="M80.792 83.234h-2.831c-0.281 0-0.512 0.228-0.512 0.507 0 0.282 0.229 0.509 0.512 0.509h2.831c0.281 0 0.508-0.227 0.508-0.509C81.3 83.461 81.074 83.234 80.792 83.234z" data-fill-palette-color="accent"></path><path fill="#332885" d="M80.792 86.125h-2.831c-0.281 0-0.512 0.227-0.512 0.508 0 0.283 0.229 0.511 0.512 0.511h2.831c0.281 0 0.508-0.228 0.508-0.511C81.302 86.351 81.074 86.125 80.792 86.125z" data-fill-palette-color="accent"></path><path fill="#332885" d="M71.89 83.445c0 0.013 0 0.02 0 0.031 0.071 0.778 0.529 1.383 1.08 1.383 0.56 0 1.021-0.618 1.081-1.414 0.006-0.06 0.013-0.116 0.013-0.175 0-0.063-0.007-0.119-0.013-0.178-0.082-0.55-0.534-0.977-1.081-0.977-0.548 0-1.002 0.427-1.08 0.979-0.009 0.056-0.014 0.115-0.014 0.175 0 0.022 0 0.049 0.002 0.071C71.881 83.376 71.882 83.412 71.89 83.445zM72.294 82.824c0 0 0.757 0.368 1.263 0 0 0 0.304 0.479 0.221 0.666l0.151-0.177c0 0.046-0.004 0.092-0.012 0.138-0.051 0.696-0.458 1.238-0.949 1.238-0.481 0-0.883-0.524-0.944-1.208 0.043 0.014 0.093 0.035 0.152 0.073C72.176 83.557 72.068 82.915 72.294 82.824z" data-fill-palette-color="accent"></path><path fill="#332885" d="M73.972 84.694c-0.046-0.006-0.089-0.013-0.136-0.018 0 0.002 0 0.005 0 0.006 0 0.007 0 0.012-0.002 0.017-0.001 0.045-0.018 0.087-0.044 0.127-0.126 0.268-0.47 0.729-0.682 1.007l-0.041-0.574c0.055-0.028 0.102-0.077 0.135-0.129 0.026-0.043 0.044-0.093 0.044-0.142 0 0-0.147 0.067-0.303 0.067-0.149 0-0.301-0.067-0.301-0.067 0 0.046 0.014 0.089 0.039 0.133 0.03 0.057 0.082 0.104 0.14 0.138l-0.041 0.588c-0.198-0.283-0.539-0.783-0.646-1.049-0.015-0.029-0.022-0.064-0.028-0.096 0-0.008-0.001-0.013-0.001-0.02 0-0.001 0-0.004 0-0.006-0.023 0.002-0.046 0.005-0.068 0.008-0.695 0.097-1.228 0.693-1.228 1.415 0 0.788 0.64 0.787 1.429 0.787h1.473c0.787 0 1.429 0.001 1.429-0.787C75.134 85.402 74.632 84.82 73.972 84.694z" data-fill-palette-color="accent"></path></g><g fill="#332885" data-fill-palette-color="accent"><path fill="#332885" d="M40.645 57.251c0 0.002 0 0.003 0 0.003 0 0.01 0.003 0.02 0.003 0.025 0.071 0.592 0.246 1.163 0.521 1.716 0 0 0 0 0-0.003-0.268-0.675-0.446-1.258-0.524-1.738C40.645 57.254 40.645 57.253 40.645 57.251z" data-fill-palette-color="accent"></path><path fill="#332885" d="M40.605 56.926c-0.002-0.034-0.006-0.073-0.008-0.104-0.002 0-0.002 0-0.002 0 0 0.035 0.01 0.074 0.012 0.109C40.605 56.932 40.605 56.93 40.605 56.926z" data-fill-palette-color="accent"></path><path fill="#332885" d="M74.182 57.159c-0.79-0.148-1.596-0.262-2.41-0.336H71.77h-0.002c0 0.022-0.004 0.046-0.005 0.069-0.005 0.012-0.006 0.024-0.006 0.036 0 0.005-0.002 0.013-0.002 0.021-0.004 0.045-0.009 0.087-0.016 0.13-0.005 0.046-0.006 0.087-0.016 0.133 0 0.002 0 0.002 0 0.002 0 0.003 0 0.005 0 0.005-0.103 0.604-0.385 1.384-0.818 2.294v0.002c-2.255 4.774-8.429 13.103-12.248 18.072l-0.722-10.344c0.987-0.511 1.841-1.331 2.422-2.283 0.48-0.788 0.779-1.669 0.779-2.563 0 0-2.685 1.185-5.419 1.185-2.737 0-5.419-1.185-5.419-1.185 0 0.825 0.255 1.64 0.672 2.381 0.577 1.034 1.48 1.925 2.53 2.466l-0.743 10.613c-3.595-5.111-9.697-14.111-11.584-18.861-0.28-0.562-0.461-1.145-0.528-1.744-0.012-0.107-0.03-0.211-0.034-0.319-0.004-0.035-0.013-0.074-0.016-0.109 0.002 0 0.002 0 0.004 0 0 0-0.001 0-0.004 0l0 0c-0.198 0.018-0.396 0.043-0.592 0.067-0.197 0.022-0.393 0.042-0.588 0.067-0.012 0.002-0.022 0.002-0.034 0.007-12.488 1.739-22.1 12.459-22.1 25.428 0 14.182 11.497 14.146 25.678 14.146h26.447c14.18 0 25.678 0.035 25.678-14.146C95.083 69.842 86.08 59.395 74.182 57.159zM83.227 87.874c0 0.887-0.72 1.604-1.605 1.604H70.712c-0.887 0-1.603-0.718-1.603-1.604v-6.739c0-0.886 0.716-1.604 1.603-1.604h10.912c0.885 0 1.603 0.719 1.603 1.604V87.874z" data-fill-palette-color="accent"></path><path fill="#332885" d="M36.066 31.116h0.013 0.461c0 0.143-0.005 0.283-0.005 0.427 0 0.434 0.017 0.862 0.039 1.291 0.038 0.623 0.098 1.24 0.184 1.847 0.014 0.185 0.03 0.37 0.046 0.555 1.24 14.019 9.438 24.847 19.374 24.847 10.064 0 18.35-11.109 19.422-25.393 0.148-1.026 0.226-2.077 0.226-3.146 0-0.144-0.005-0.285-0.009-0.428h0.549 0.012c1.623 0 5.504-1.313 5.504-2.936 0-1.623-3.884-2.937-5.504-2.937h-0.012c-1.079-7.472-5.895-14.807-12.782-18.072l-0.397 5.249-0.278 3.389L62.397 15.8l0.267-3.778 0.371-5.277 0.077-1.086L59.89 5.522 59.886 5.65l-0.173 5.549-0.142 4.476-0.007 0.265-0.257 8.222h-0.557l0.358-13.065 0.152-5.582 0.053-1.913h-7.059l0.057 2.111 0.154 5.523 0.353 12.925h-0.557l-0.259-8.227-0.007-0.264-0.135-4.302-0.172-5.483-0.012-0.371-3.346 0.143 0.108 1.565 0.364 5.154 0.24 3.422-0.513 0.008-0.252-3.023-0.386-5.122c-6.396 3.497-10.783 10.462-11.813 17.58h-0.013c-1.621 0-5.502 1.313-5.502 2.937C30.563 29.801 34.444 31.116 36.066 31.116zM41.451 31.116h28.956c0.525 1.684 0.747 3.285 0.261 4.359l2.758-3.167c-0.013 0.84-0.076 1.67-0.194 2.478-0.939 12.54-8.214 22.293-17.052 22.293-8.69 0-15.871-9.439-16.998-21.686 0.765 0.191 1.704 0.563 2.723 1.276C41.904 36.666 41.465 34.039 41.451 31.116z" data-fill-palette-color="accent"></path></g></g><path d="M28.008 42.519l-1.543-1.044-2.597 3.839-2.668 0.516-2.293-1.547-0.516-2.672 2.596-3.839-1.546-1.044c-1.66 0.391-3.184 1.383-4.213 2.906-1.594 2.357-1.563 5.332-0.169 7.61L4.417 62.988c-0.9 1.331-0.553 3.145 0.782 4.046 1.333 0.899 3.147 0.553 4.047-0.783l10.642-15.744c2.629 0.442 5.401-0.638 6.996-2.992C27.914 45.987 28.267 44.206 28.008 42.519zM6.043 65.786c-0.642-0.437-0.813-1.311-0.38-1.956 0.437-0.644 1.311-0.813 1.956-0.373 0.646 0.431 0.813 1.308 0.379 1.948C7.56 66.052 6.688 66.221 6.043 65.786z" fill="#332885" data-fill-palette-color="accent"></path></svg></g></svg></g><g id="text-0"><path d="M34.471 99.002l-0.855 2.392-23.936-8.551c-0.126 0.353-0.317 1.106-0.572 2.258v0l-1.586 7.216-1.797-0.642 7.345-20.562 1.796 0.642-3.344 6.587c-0.533 1.053-0.862 1.757-0.988 2.109v0z" fill="#332885" data-fill-palette-color="primary"></path><path d="M28.612 79.984v0c-1.614-1.042-2.932-2.3-3.957-3.774-1.015-1.476-1.708-3.067-2.08-4.773-0.366-1.702-0.386-3.436-0.06-5.2 0.321-1.768 1.001-3.456 2.04-5.064v0c1.042-1.614 2.303-2.931 3.782-3.951 1.47-1.018 3.058-1.714 4.764-2.086 1.708-0.363 3.443-0.386 5.206-0.068 1.765 0.327 3.454 1.011 5.068 2.053v0c1.608 1.038 2.924 2.294 3.948 3.768 1.02 1.479 1.714 3.07 2.08 4.773 0.363 1.708 0.386 3.443 0.068 5.206-0.327 1.765-1.011 3.454-2.053 5.068v0c-1.038 1.608-2.294 2.924-3.769 3.948-1.479 1.02-3.07 1.714-4.772 2.08-1.702 0.366-3.438 0.389-5.207 0.068-1.765-0.327-3.451-1.009-5.058-2.048zM30.153 77.597v0c2.131 1.376 4.241 2.205 6.329 2.486 2.089 0.281 4.017 0.028 5.784-0.758 1.772-0.783 3.24-2.075 4.401-3.874v0c1.165-1.805 1.74-3.676 1.725-5.614-0.01-1.934-0.578-3.799-1.705-5.594-1.121-1.792-2.739-3.37-4.853-4.735v0c-2.114-1.365-4.215-2.188-6.305-2.47-2.089-0.281-4.022-0.032-5.8 0.748-1.784 0.776-3.258 2.067-4.424 3.871v0c-1.162 1.799-1.731 3.662-1.708 5.589 0.017 1.923 0.58 3.784 1.688 5.583 1.109 1.799 2.731 3.389 4.868 4.768z" fill="#332885" data-fill-palette-color="primary"></path><path d="M65.441 56.118l-25.044-14.189 2.137-1.7 21.405 12.21 0.181-0.144-4.527-15.306-7.575-4.301 2.129-1.693 21.338 12.173 0.173-0.137-8.279-22.557 2.13-1.693 8.19 27.59-0.645 0.513-16.284-9.253 5.315 17.975z" fill="#332885" data-fill-palette-color="primary"></path><path d="M92.79 36.643l-2.345 0.974-9.381-25.008 0.418-0.173 26.084 13.773 0.213-0.088-9.281-20.19 2.346-0.975 9.38 25.008-0.417 0.174-26.084-13.774-0.204 0.085z" fill="#332885" data-fill-palette-color="primary"></path><path d="M140.326 26.35l-2.539 0.048-0.483-25.414c-0.375 0.007-1.146 0.095-2.315 0.265v0l-7.309 1.073-0.036-1.907 21.83-0.415 0.036 1.907-7.344-0.794c-1.174-0.125-1.948-0.184-2.323-0.177v0z" fill="#332885" data-fill-palette-color="primary"></path><path d="M153.25 26.932l-2.685-0.498 14.666-23.896 2.27 0.421 5.114 27.567-2.685-0.498-2.313-12.896-8.35-1.55zM165.349 4.54l-0.217-0.04-5.444 10.241 7.758 1.44z" fill="#332885" data-fill-palette-color="primary"></path><path d="M177.202 31.433v0l1.028-2.001 0.215 0.085c0.593 1.141 1.368 2.156 2.326 3.046 0.964 0.892 2.004 1.558 3.118 1.998v0c1.575 0.622 3.02 0.689 4.335 0.202 1.322-0.485 2.27-1.456 2.846-2.913v0c0.32-0.809 0.437-1.634 0.351-2.473-0.086-0.84-0.398-1.78-0.937-2.82-0.536-1.047-1.359-2.271-2.467-3.674v0c-0.767-0.972-1.477-1.954-2.128-2.945-0.655-1-1.105-2.038-1.35-3.113-0.244-1.075-0.133-2.204 0.335-3.387v0c0.696-1.761 1.895-2.929 3.596-3.501 1.701-0.573 3.595-0.447 5.68 0.376v0c0.927 0.366 1.884 0.86 2.869 1.48 0.988 0.613 1.714 1.188 2.179 1.724v0l-0.944 1.872-0.206-0.081c-0.758-1.962-2.167-3.349-4.227-4.164v0c-1.481-0.585-2.826-0.678-4.035-0.277-1.2 0.397-2.051 1.23-2.553 2.499v0c-0.376 0.952-0.451 1.869-0.223 2.751 0.227 0.881 0.629 1.749 1.206 2.603 0.568 0.858 1.205 1.721 1.912 2.59v0c0.801 1.014 1.563 2.053 2.288 3.117 0.718 1.061 1.21 2.183 1.476 3.368 0.27 1.193 0.126 2.496-0.433 3.909v0c-0.514 1.301-1.267 2.324-2.26 3.069-0.992 0.745-2.15 1.18-3.473 1.304-1.321 0.119-2.709-0.11-4.165-0.685v0c-0.927-0.366-1.971-0.912-3.131-1.637-1.166-0.727-2.242-1.501-3.228-2.322z" fill="#332885" data-fill-palette-color="primary"></path><path d="M214.194 52.793l-2.813-1.843-2.906-17.95 16.493-4.436 2.695 1.766-16.701 3.051zM199.994 43.49l-2.124-1.392 14.343-21.891 2.124 1.392z" fill="#332885" data-fill-palette-color="primary"></path><path d="M226.749 65.7l-8.236-8.046 18.289-18.72 8.157 7.969-1.284 1.314-4.078-5.191c-0.716-0.905-1.217-1.498-1.505-1.779v0l-7.969 8.157c0.235 0.229 0.816 0.741 1.743 1.535v0l4.647 4.02-1.2 1.228-4.128-4.552c-0.82-0.904-1.347-1.47-1.581-1.699v0l-8.755 8.961c0.321 0.313 0.937 0.808 1.849 1.484v0l5.328 4.013z" fill="#332885" data-fill-palette-color="primary"></path><path d="M231.484 72.748l21.799-14.481 2.772 4.172c1.463 2.202 2.135 4.218 2.017 6.048-0.118 1.83-1.008 3.297-2.669 4.401v0c-1.282 0.852-2.602 1.182-3.958 0.99-1.357-0.192-2.656-0.907-3.897-2.148v0l-0.184 0.123c0.638 1.553 0.738 3.101 0.301 4.644-0.442 1.547-1.264 3.037-2.466 4.47v0c-1.112 1.301-1.917 2.394-2.414 3.279-0.503 0.888-0.766 1.678-0.789 2.368-0.023 0.69 0.105 1.404 0.387 2.142v0l-0.184 0.122-0.85-1.279c-0.604-0.909-0.936-1.772-0.998-2.591-0.064-0.809 0.163-1.683 0.681-2.622 0.508-0.94 1.335-2.06 2.48-3.359v0c1.735-2.02 2.719-3.823 2.952-5.408 0.235-1.594-0.124-3.107-1.075-4.54v0l-0.122-0.184 0.56-0.372 0.122 0.184c2.218 3.339 4.863 3.989 7.935 1.948v0c3.027-2.011 3.5-4.583 1.418-7.716v0l-1.366-2.057-21.047 13.982z" fill="#332885" data-fill-palette-color="primary"></path><path d="M243.694 91.684v0l2.157-0.64 0.087 0.214c-0.415 1.217-0.613 2.479-0.594 3.786 0.022 1.313 0.258 2.525 0.711 3.634v0c0.638 1.568 1.588 2.659 2.85 3.273 1.264 0.62 2.621 0.634 4.071 0.044v0c0.806-0.328 1.483-0.813 2.031-1.455 0.548-0.642 1.012-1.517 1.391-2.626 0.386-1.111 0.703-2.551 0.95-4.322v0c0.173-1.226 0.392-2.418 0.659-3.573 0.27-1.165 0.709-2.207 1.317-3.127 0.608-0.92 1.501-1.619 2.679-2.099v0c1.754-0.714 3.426-0.654 5.016 0.18 1.59 0.834 2.807 2.289 3.653 4.366v0c0.376 0.924 0.681 1.956 0.913 3.096 0.239 1.138 0.326 2.06 0.26 2.767v0l-2.006 0.61-0.083-0.204c0.894-1.903 0.924-3.881 0.088-5.933v0c-0.601-1.475-1.463-2.511-2.588-3.108-1.116-0.593-2.306-0.633-3.571-0.118v0c-0.948 0.386-1.663 0.966-2.142 1.74-0.48 0.773-0.829 1.664-1.048 2.67-0.227 1.003-0.411 2.061-0.551 3.172v0c-0.18 1.28-0.404 2.549-0.672 3.807-0.271 1.252-0.742 2.383-1.414 3.394-0.676 1.02-1.718 1.816-3.125 2.389v0c-1.295 0.527-2.555 0.69-3.779 0.487-1.224-0.203-2.338-0.739-3.344-1.608-0.998-0.873-1.793-2.034-2.383-3.485v0c-0.376-0.924-0.703-2.055-0.981-3.394-0.28-1.345-0.464-2.658-0.552-3.937z" fill="#332885" data-fill-palette-color="primary"></path><path d="M9.827 189.987l-0.854-2.392 23.937-8.55c-0.126-0.353-0.455-1.056-0.988-2.11v0l-3.345-6.587 1.796-0.642 7.345 20.562-1.796 0.642-1.586-7.216c-0.255-1.152-0.446-1.905-0.572-2.258v0z" fill="#332885" data-fill-palette-color="primary"></path><path d="M28.605 200.206v0c1.614-1.042 3.303-1.726 5.068-2.053 1.763-0.318 3.498-0.295 5.206 0.068 1.702 0.366 3.291 1.062 4.764 2.085 1.479 1.02 2.738 2.335 3.777 3.943v0c1.042 1.614 1.724 3.304 2.044 5.073 0.323 1.759 0.303 3.493-0.059 5.2-0.372 1.706-1.066 3.297-2.08 4.773-1.024 1.474-2.343 2.732-3.957 3.774v0c-1.608 1.038-3.294 1.721-5.059 2.048-1.768 0.321-3.504 0.299-5.206-0.068-1.706-0.372-3.297-1.066-4.773-2.081-1.474-1.024-2.732-2.343-3.773-3.956v0c-1.038-1.608-1.721-3.294-2.048-5.059-0.321-1.768-0.299-3.504 0.068-5.206 0.366-1.702 1.06-3.293 2.08-4.773 1.024-1.474 2.34-2.73 3.948-3.768zM30.146 202.593v0c-2.131 1.376-3.754 2.958-4.87 4.746-1.116 1.788-1.679 3.649-1.688 5.583-0.015 1.938 0.558 3.806 1.719 5.605v0c1.165 1.805 2.634 3.099 4.407 3.882 1.767 0.787 3.7 1.036 5.801 0.748 2.094-0.285 4.199-1.11 6.312-2.475v0c2.114-1.365 3.729-2.942 4.845-4.729 1.116-1.788 1.684-3.653 1.705-5.595 0.027-1.945-0.543-3.82-1.708-5.624v0c-1.162-1.799-2.625-3.085-4.39-3.857-1.76-0.776-3.687-1.029-5.784-0.759-2.096 0.27-4.212 1.095-6.349 2.475z" fill="#332885" data-fill-palette-color="primary"></path><path d="M48.504 245.368l8.182-27.597 2.138 1.699-7.073 23.605 0.181 0.144 13.892-7.858 2.484-8.35 2.129 1.693-7.053 23.532 0.173 0.137 20.112-13.147 2.129 1.693-25.036 14.195-0.644-0.512 5.346-17.95-16.315 9.228z" fill="#332885" data-fill-palette-color="primary"></path><path d="M82.749 267.708l-2.345-0.974 11.104-24.292 0.417 0.174 8.643 28.202 0.213 0.089 7.76-20.822 2.346 0.975-11.105 24.291-0.417-0.173-8.642-28.203-0.204-0.085z" fill="#332885" data-fill-palette-color="primary"></path><path d="M139.829 280l-2.54-0.048 0.483-25.414c-0.375-0.007-1.149 0.052-2.322 0.177v0l-7.345 0.794 0.036-1.907 21.831 0.415-0.037 1.907-7.309-1.073c-1.168-0.169-1.94-0.258-2.314-0.264v0z" fill="#332885" data-fill-palette-color="primary"></path><path d="M158.025 278.983l-2.685 0.498 5.114-27.567 2.27-0.421 14.666 23.896-2.684 0.498-6.787-11.207-8.351 1.55zM161.283 253.741l-0.217 0.04-1.406 11.513 7.758-1.44z" fill="#332885" data-fill-palette-color="primary"></path><path d="M186.213 271.559v0l-0.617-2.163 0.215-0.085c1.212 0.428 2.472 0.639 3.779 0.633 1.314-0.008 2.528-0.232 3.642-0.673v0c1.575-0.622 2.675-1.561 3.302-2.815 0.633-1.258 0.662-2.614 0.086-4.071v0c-0.32-0.809-0.798-1.491-1.434-2.046-0.636-0.554-1.507-1.027-2.611-1.418-1.107-0.397-2.544-0.729-4.311-0.995v0c-1.225-0.185-2.414-0.417-3.567-0.696-1.162-0.282-2.2-0.732-3.113-1.35-0.913-0.618-1.604-1.518-2.071-2.7v0c-0.696-1.761-0.619-3.433 0.232-5.014 0.851-1.581 2.318-2.783 4.403-3.607v0c0.927-0.366 1.963-0.66 3.106-0.882 1.141-0.228 2.064-0.304 2.769-0.23v0l0.59 2.012-0.205 0.081c-1.894-0.914-3.871-0.964-5.932-0.15v0c-1.481 0.585-2.526 1.437-3.135 2.556-0.605 1.11-0.657 2.299-0.155 3.569v0c0.376 0.952 0.949 1.672 1.717 2.16 0.768 0.488 1.655 0.846 2.66 1.076 1.001 0.238 2.056 0.432 3.166 0.584v0c1.278 0.193 2.545 0.43 3.8 0.711 1.249 0.284 2.375 0.767 3.379 1.45 1.012 0.687 1.798 1.736 2.357 3.149v0c0.514 1.301 0.663 2.562 0.448 3.784-0.215 1.222-0.763 2.331-1.644 3.326-0.883 0.989-2.052 1.772-3.509 2.347v0c-0.927 0.366-2.062 0.682-3.404 0.946-1.348 0.266-2.663 0.437-3.943 0.511z" fill="#332885" data-fill-palette-color="primary"></path><path d="M228.535 249.282l-2.813 1.843-17.617-4.504 2.519-16.892 2.695-1.766-3.871 16.53zM214.336 258.585l-2.125 1.392-14.342-21.891 2.124-1.392z" fill="#332885" data-fill-palette-color="primary"></path><path d="M245.036 233.204l-8.236 8.046-18.289-18.72 8.158-7.969 1.283 1.314-5.285 3.956c-0.921 0.694-1.526 1.182-1.813 1.463v0l7.969 8.157c0.235-0.229 0.759-0.798 1.575-1.707v0l4.128-4.552 1.199 1.228-4.647 4.021c-0.923 0.799-1.501 1.312-1.735 1.541v0l8.754 8.962c0.321-0.313 0.829-0.918 1.527-1.814v0l4.135-5.233z" fill="#332885" data-fill-palette-color="primary"></path><path d="M253.281 221.918l-21.799-14.482 2.771-4.172c1.463-2.202 3.06-3.603 4.794-4.204 1.733-0.601 3.43-0.349 5.09 0.755v0c1.282 0.852 2.098 1.94 2.448 3.264 0.349 1.325 0.193 2.8-0.469 4.425v0l0.184 0.122c1.184-1.19 2.572-1.883 4.164-2.078 1.598-0.192 3.29-0.012 5.077 0.54v0c1.631 0.521 2.95 0.839 3.958 0.954 1.014 0.119 1.843 0.055 2.489-0.19 0.646-0.246 1.254-0.642 1.824-1.187v0l0.184 0.122-0.85 1.28c-0.604 0.909-1.271 1.55-2.001 1.924-0.721 0.372-1.615 0.502-2.681 0.389-1.064-0.104-2.417-0.432-4.058-0.985v0c-2.535-0.816-4.578-1.024-6.129-0.624-1.56 0.402-2.816 1.319-3.768 2.751v0l-0.123 0.184-0.56-0.372 0.122-0.184c2.218-3.339 1.791-6.029-1.28-8.069v0c-3.027-2.011-5.581-1.45-7.662 1.683v0l-1.366 2.057 21.046 13.981z" fill="#332885" data-fill-palette-color="primary"></path><path d="M266.406 197.749v0l-1.99-1.048 0.087-0.214c1.147-0.581 2.17-1.346 3.07-2.295 0.902-0.955 1.579-1.987 2.03-3.097v0c0.638-1.568 0.721-3.012 0.247-4.333-0.472-1.326-1.433-2.285-2.883-2.875v0c-0.806-0.328-1.629-0.454-2.47-0.377-0.841 0.077-1.784 0.379-2.83 0.907-1.052 0.525-2.285 1.335-3.698 2.429v0c-0.98 0.757-1.969 1.456-2.968 2.098-1.007 0.645-2.049 1.084-3.127 1.317-1.078 0.233-2.205 0.11-3.383-0.369v0c-1.754-0.714-2.909-1.925-3.463-3.633-0.555-1.707-0.41-3.599 0.435-5.675v0c0.376-0.924 0.879-1.875 1.509-2.854 0.624-0.982 1.206-1.702 1.747-2.161v0l1.862 0.964-0.083 0.204c-1.969 0.737-3.372 2.132-4.207 4.184v0c-0.601 1.475-0.707 2.819-0.32 4.032 0.384 1.204 1.208 2.064 2.473 2.578v0c0.948 0.386 1.864 0.47 2.748 0.252 0.884-0.218 1.755-0.611 2.616-1.179 0.863-0.559 1.734-1.187 2.61-1.885v0c1.023-0.79 2.069-1.542 3.14-2.255 1.068-0.707 2.196-1.187 3.383-1.441 1.196-0.257 2.497-0.1 3.904 0.473v0c1.295 0.527 2.31 1.291 3.045 2.291 0.735 1 1.157 2.162 1.269 3.487 0.105 1.322-0.138 2.708-0.728 4.158v0c-0.376 0.924-0.932 1.962-1.669 3.114-0.739 1.159-1.524 2.226-2.356 3.203z" fill="#332885" data-fill-palette-color="primary"></path><path d="M3.313 140.093c0-5.631 4.565-10.196 10.197-10.196 5.631 0 10.196 4.565 10.196 10.196 0 5.631-4.565 10.196-10.196 10.196-5.631 0-10.196-4.565-10.197-10.196z" fill="#332885" data-fill-palette-color="primary"></path><path d="M256.294 140.093c0-5.631 4.565-10.196 10.196-10.196 5.631 0 10.196 4.565 10.197 10.196 0 5.631-4.565 10.196-10.197 10.196-5.631 0-10.196-4.565-10.196-10.196z" fill="#332885" data-fill-palette-color="primary"></path></g><g id="text-1"></g></svg></g></svg></g></svg></g></svg></g><defs></defs></svg><rect width="280" height="280" fill="none" stroke="none" visibility="hidden"></rect></g></svg></g></svg>