<svg xmlns="http://www.w3.org/2000/svg" version="1.1" xmlns:xlink="http://www.w3.org/1999/xlink" xmlns:svgjs="http://svgjs.dev/svgjs" width="2000" height="489" viewBox="0 0 2000 489"><g transform="matrix(1,0,0,1,-1.2121212121212466,-0.675430341142544)"><svg viewBox="0 0 396 97" data-background-color="#ffffff" preserveAspectRatio="xMidYMid meet" height="489" width="2000" xmlns="http://www.w3.org/2000/svg" xmlns:xlink="http://www.w3.org/1999/xlink"><g id="tight-bounds" transform="matrix(1,0,0,1,0.2400000000000091,0.13398106971538937)"><svg viewBox="0 0 395.52 96.73203786056924" height="96.73203786056924" width="395.52"><g><svg viewBox="0 0 552.761132728575 135.18838698157276" height="96.73203786056924" width="395.52"><g transform="matrix(1,0,0,1,157.2411327285751,48.91144238774979)"><svg viewBox="0 0 395.5199999999999 37.36550220607318" height="37.36550220607318" width="395.5199999999999"><g id="textblocktransform"><svg viewBox="0 0 395.5199999999999 37.36550220607318" height="37.36550220607318" width="395.5199999999999" id="textblock"><g><svg viewBox="0 0 395.5199999999999 37.36550220607318" height="37.36550220607318" width="395.5199999999999"><g transform="matrix(1,0,0,1,0,0)"><svg width="395.5199999999999" viewBox="1.6 -35.7 385.27 36.400000000000006" height="37.36550220607318" data-palette-color="#332885"><path d="M17.9 0L14.5 0 14.5-34Q13.75-34 11.4-33.7L11.4-33.7 1.6-32.45 1.6-35 30.8-35 30.8-32.45 21-33.7Q18.65-34 17.9-34L17.9-34 17.9 0ZM34.9-17.5L34.9-17.5Q34.9-21.35 36.27-24.68 37.65-28 40.12-30.48 42.6-32.95 45.92-34.33 49.25-35.7 53.1-35.7L53.1-35.7Q56.95-35.7 60.27-34.33 63.6-32.95 66.07-30.48 68.55-28 69.92-24.68 71.3-21.35 71.3-17.5L71.3-17.5Q71.3-13.65 69.92-10.33 68.55-7 66.07-4.53 63.6-2.05 60.27-0.68 56.95 0.7 53.1 0.7L53.1 0.7Q49.25 0.7 45.92-0.68 42.6-2.05 40.12-4.53 37.65-7 36.27-10.33 34.9-13.65 34.9-17.5ZM38.7-17.5L38.7-17.5Q38.7-12.4 40.5-8.58 42.3-4.75 45.55-2.63 48.8-0.5 53.1-0.5L53.1-0.5Q57.4-0.5 60.65-2.63 63.9-4.75 65.7-8.6 67.5-12.45 67.5-17.5L67.5-17.5Q67.5-22.55 65.7-26.38 63.9-30.2 60.65-32.35 57.4-34.5 53.1-34.5L53.1-34.5Q48.8-34.5 45.57-32.38 42.35-30.25 40.52-26.43 38.7-22.6 38.7-17.5ZM90.8 0.7L76.39-35 80.05-35 92.3-4.4 92.59-4.4 100.59-24.2 96.25-35 99.9-35 112.09-4.5 112.4-4.5 122.5-35 126.15-35 111.75 0.7 110.65 0.7 101.3-22.55 91.9 0.7 90.8 0.7ZM136.59 0L133.19 0 134.44-35.7 135.04-35.7 160.19-5.3 160.49-5.3 159.39-35 162.79-35 161.54 0.7 160.94 0.7 135.79-29.7 135.49-29.7 136.59 0ZM199.94 0L196.54 0 196.54-34Q195.79-34 193.44-33.7L193.44-33.7 183.64-32.45 183.64-35 212.84-35 212.84-32.45 203.04-33.7Q200.69-34 199.94-34L199.94-34 199.94 0ZM216.39 0L212.74 0 226.19-35 229.29-35 242.74 0 239.09 0 232.89-16.4 221.54-16.4 216.39 0ZM226.84-32.4L226.54-32.4 221.89-17.6 232.44-17.6 226.84-32.4ZM247.78-1.1L247.78-1.1 248.08-4.1 248.38-4.1Q250.33-2.4 252.78-1.45 255.23-0.5 257.63-0.5L257.63-0.5Q261.03-0.5 263.13-2.38 265.23-4.25 265.23-7.4L265.23-7.4Q265.23-9.15 264.46-10.65 263.68-12.15 261.91-13.7 260.13-15.25 257.03-17.05L257.03-17.05Q254.88-18.3 252.93-19.68 250.98-21.05 249.73-22.88 248.48-24.7 248.48-27.25L248.48-27.25Q248.48-31.05 251.23-33.38 253.98-35.7 258.48-35.7L258.48-35.7Q260.48-35.7 262.78-35.27 265.08-34.85 266.33-34.2L266.33-34.2 266.08-31.4 265.78-31.4Q262.93-34.5 258.48-34.5L258.48-34.5Q255.28-34.5 253.33-32.88 251.38-31.25 251.38-28.5L251.38-28.5Q251.38-26.45 252.46-24.98 253.53-23.5 255.23-22.33 256.93-21.15 258.88-20.05L258.88-20.05Q261.13-18.75 263.26-17.3 265.38-15.85 266.76-13.83 268.13-11.8 268.13-8.75L268.13-8.75Q268.13-5.95 266.83-3.83 265.53-1.7 263.16-0.5 260.78 0.7 257.63 0.7L257.63 0.7Q255.63 0.7 252.93 0.2 250.23-0.3 247.78-1.1ZM304.08 0L299.58 0 283.18-17.95 298.38-35 302.68-35 286.23-19.35 304.08 0ZM281.38 0L277.98 0 277.98-35 281.38-35 281.38 0ZM326.98 0L311.58 0 311.58-35 326.83-35 326.83-32.55 318.08-33.7Q315.78-34 314.98-34L314.98-34 314.98-18.75Q315.63-18.75 318.08-18.9L318.08-18.9 326.28-19.4 326.28-17.1 318.08-17.6Q315.63-17.75 314.98-17.75L314.98-17.75 314.98-1Q315.88-1 318.13-1.3L318.13-1.3 326.98-2.45 326.98 0ZM337.48 0L337.48-35 344.18-35Q349.48-35 352.4-32.77 355.33-30.55 355.33-26.55L355.33-26.55Q355.33-23.45 353.5-21.4 351.68-19.35 348.23-18.65L348.23-18.65 348.23-18.35Q351.53-17.7 353.63-15.25 355.73-12.8 356.78-9.2L356.78-9.2Q357.73-5.9 358.65-4.08 359.58-2.25 360.7-1.45 361.83-0.65 363.38-0.3L363.38-0.3 363.38 0 361.33 0Q359.13 0 357.7-0.8 356.28-1.6 355.28-3.5 354.28-5.4 353.38-8.75L353.38-8.75Q351.93-13.9 349.53-16.05 347.13-18.2 343.68-18.2L343.68-18.2 343.38-18.2 343.38-19.1 343.68-19.1Q351.73-19.1 351.73-26.5L351.73-26.5Q351.73-33.8 344.18-33.8L344.18-33.8 340.88-33.8 340.88 0 337.48 0ZM366.52-1.1L366.52-1.1 366.82-4.1 367.12-4.1Q369.07-2.4 371.52-1.45 373.97-0.5 376.37-0.5L376.37-0.5Q379.77-0.5 381.87-2.38 383.97-4.25 383.97-7.4L383.97-7.4Q383.97-9.15 383.2-10.65 382.42-12.15 380.65-13.7 378.87-15.25 375.77-17.05L375.77-17.05Q373.62-18.3 371.67-19.68 369.72-21.05 368.47-22.88 367.22-24.7 367.22-27.25L367.22-27.25Q367.22-31.05 369.97-33.38 372.72-35.7 377.22-35.7L377.22-35.7Q379.22-35.7 381.52-35.27 383.82-34.85 385.07-34.2L385.07-34.2 384.82-31.4 384.52-31.4Q381.67-34.5 377.22-34.5L377.22-34.5Q374.02-34.5 372.07-32.88 370.12-31.25 370.12-28.5L370.12-28.5Q370.12-26.45 371.2-24.98 372.27-23.5 373.97-22.33 375.67-21.15 377.62-20.05L377.62-20.05Q379.87-18.75 382-17.3 384.12-15.85 385.5-13.83 386.87-11.8 386.87-8.75L386.87-8.75Q386.87-5.95 385.57-3.83 384.27-1.7 381.9-0.5 379.52 0.7 376.37 0.7L376.37 0.7Q374.37 0.7 371.67 0.2 368.97-0.3 366.52-1.1Z" opacity="1" transform="matrix(1,0,0,1,0,0)" fill="#332885" class="wordmark-text-0" data-fill-palette-color="primary" id="text-0"></path></svg></g></svg></g></svg></g></svg></g><g><svg viewBox="0 0 135.18838698157276 135.18838698157276" height="135.18838698157276" width="135.18838698157276"><g><svg viewBox="0 0 135.18838698157276 135.18838698157276" height="135.18838698157276" width="135.18838698157276"><g transform="matrix(1,0,0,1,36.33681658148197,35.729985100005955)"><svg viewBox="0 0 62.51475381860882 63.72841678156085" height="63.72841678156085" width="62.51475381860882"><g><svg xmlns="http://www.w3.org/2000/svg" xmlns:xlink="http://www.w3.org/1999/xlink" version="1.1" x="0" y="0" viewBox="3.9169190261187916 3.6019999999999994 91.16708097388121 92.93700091853135" enable-background="new 0 0 100 100" xml:space="preserve" height="63.72841678156085" width="62.51475381860882" class="icon-cg-0" data-fill-palette-color="accent" id="cg-0"><g fill="#332885" data-fill-palette-color="accent"><g fill="#332885" data-fill-palette-color="accent"><path fill="#332885" d="M73.706 86.886h-1.472c-0.79 0-1.43 0.001-1.43-0.787 0-0.723 0.536-1.318 1.229-1.415 0.021-0.002 0.044-0.006 0.066-0.008 0 0.002 0 0.005 0 0.006 0 0.007 0 0.012 0.003 0.02 0.004 0.031 0.014 0.066 0.029 0.096 0.105 0.266 0.444 0.766 0.646 1.049l0.04-0.588c-0.06-0.033-0.108-0.081-0.142-0.138-0.023-0.044-0.037-0.087-0.037-0.133 0 0 0.148 0.067 0.301 0.067s0.301-0.067 0.301-0.067c0 0.049-0.016 0.099-0.044 0.142-0.031 0.053-0.078 0.101-0.136 0.129l0.042 0.574c0.213-0.274 0.557-0.739 0.681-1.004 0.026-0.039 0.042-0.085 0.046-0.127 0.001-0.008 0.001-0.013 0.001-0.018 0-0.002 0-0.003 0-0.008 0.048 0.006 0.092 0.013 0.134 0.021 0.663 0.123 1.165 0.704 1.165 1.401C75.134 86.887 74.493 86.886 73.706 86.886zM80.792 87.143h-2.831c-0.281 0-0.512-0.228-0.512-0.511 0-0.279 0.229-0.507 0.512-0.507h2.831c0.281 0 0.508 0.226 0.508 0.507C81.302 86.916 81.074 87.143 80.792 87.143zM80.792 84.25h-2.831c-0.281 0-0.512-0.227-0.512-0.509 0-0.279 0.229-0.507 0.512-0.507h2.831c0.281 0 0.508 0.228 0.508 0.507C81.3 84.023 81.074 84.25 80.792 84.25z" data-fill-palette-color="accent"></path><path fill="#332885" d="M80.792 83.234h-2.831c-0.281 0-0.512 0.228-0.512 0.507 0 0.282 0.229 0.509 0.512 0.509h2.831c0.281 0 0.508-0.227 0.508-0.509C81.3 83.461 81.074 83.234 80.792 83.234z" data-fill-palette-color="accent"></path><path fill="#332885" d="M80.792 86.125h-2.831c-0.281 0-0.512 0.227-0.512 0.508 0 0.283 0.229 0.511 0.512 0.511h2.831c0.281 0 0.508-0.228 0.508-0.511C81.302 86.351 81.074 86.125 80.792 86.125z" data-fill-palette-color="accent"></path><path fill="#332885" d="M71.89 83.445c0 0.013 0 0.02 0 0.031 0.071 0.778 0.529 1.383 1.08 1.383 0.56 0 1.021-0.618 1.081-1.414 0.006-0.06 0.013-0.116 0.013-0.175 0-0.063-0.007-0.119-0.013-0.178-0.082-0.55-0.534-0.977-1.081-0.977-0.548 0-1.002 0.427-1.08 0.979-0.009 0.056-0.014 0.115-0.014 0.175 0 0.022 0 0.049 0.002 0.071C71.881 83.376 71.882 83.412 71.89 83.445zM72.294 82.824c0 0 0.757 0.368 1.263 0 0 0 0.304 0.479 0.221 0.666l0.151-0.177c0 0.046-0.004 0.092-0.012 0.138-0.051 0.696-0.458 1.238-0.949 1.238-0.481 0-0.883-0.524-0.944-1.208 0.043 0.014 0.093 0.035 0.152 0.073C72.176 83.557 72.068 82.915 72.294 82.824z" data-fill-palette-color="accent"></path><path fill="#332885" d="M73.972 84.694c-0.046-0.006-0.089-0.013-0.136-0.018 0 0.002 0 0.005 0 0.006 0 0.007 0 0.012-0.002 0.017-0.001 0.045-0.018 0.087-0.044 0.127-0.126 0.268-0.47 0.729-0.682 1.007l-0.041-0.574c0.055-0.028 0.102-0.077 0.135-0.129 0.026-0.043 0.044-0.093 0.044-0.142 0 0-0.147 0.067-0.303 0.067-0.149 0-0.301-0.067-0.301-0.067 0 0.046 0.014 0.089 0.039 0.133 0.03 0.057 0.082 0.104 0.14 0.138l-0.041 0.588c-0.198-0.283-0.539-0.783-0.646-1.049-0.015-0.029-0.022-0.064-0.028-0.096 0-0.008-0.001-0.013-0.001-0.02 0-0.001 0-0.004 0-0.006-0.023 0.002-0.046 0.005-0.068 0.008-0.695 0.097-1.228 0.693-1.228 1.415 0 0.788 0.64 0.787 1.429 0.787h1.473c0.787 0 1.429 0.001 1.429-0.787C75.134 85.402 74.632 84.82 73.972 84.694z" data-fill-palette-color="accent"></path></g><g fill="#332885" data-fill-palette-color="accent"><path fill="#332885" d="M40.645 57.251c0 0.002 0 0.003 0 0.003 0 0.01 0.003 0.02 0.003 0.025 0.071 0.592 0.246 1.163 0.521 1.716 0 0 0 0 0-0.003-0.268-0.675-0.446-1.258-0.524-1.738C40.645 57.254 40.645 57.253 40.645 57.251z" data-fill-palette-color="accent"></path><path fill="#332885" d="M40.605 56.926c-0.002-0.034-0.006-0.073-0.008-0.104-0.002 0-0.002 0-0.002 0 0 0.035 0.01 0.074 0.012 0.109C40.605 56.932 40.605 56.93 40.605 56.926z" data-fill-palette-color="accent"></path><path fill="#332885" d="M74.182 57.159c-0.79-0.148-1.596-0.262-2.41-0.336H71.77h-0.002c0 0.022-0.004 0.046-0.005 0.069-0.005 0.012-0.006 0.024-0.006 0.036 0 0.005-0.002 0.013-0.002 0.021-0.004 0.045-0.009 0.087-0.016 0.13-0.005 0.046-0.006 0.087-0.016 0.133 0 0.002 0 0.002 0 0.002 0 0.003 0 0.005 0 0.005-0.103 0.604-0.385 1.384-0.818 2.294v0.002c-2.255 4.774-8.429 13.103-12.248 18.072l-0.722-10.344c0.987-0.511 1.841-1.331 2.422-2.283 0.48-0.788 0.779-1.669 0.779-2.563 0 0-2.685 1.185-5.419 1.185-2.737 0-5.419-1.185-5.419-1.185 0 0.825 0.255 1.64 0.672 2.381 0.577 1.034 1.48 1.925 2.53 2.466l-0.743 10.613c-3.595-5.111-9.697-14.111-11.584-18.861-0.28-0.562-0.461-1.145-0.528-1.744-0.012-0.107-0.03-0.211-0.034-0.319-0.004-0.035-0.013-0.074-0.016-0.109 0.002 0 0.002 0 0.004 0 0 0-0.001 0-0.004 0l0 0c-0.198 0.018-0.396 0.043-0.592 0.067-0.197 0.022-0.393 0.042-0.588 0.067-0.012 0.002-0.022 0.002-0.034 0.007-12.488 1.739-22.1 12.459-22.1 25.428 0 14.182 11.497 14.146 25.678 14.146h26.447c14.18 0 25.678 0.035 25.678-14.146C95.083 69.842 86.08 59.395 74.182 57.159zM83.227 87.874c0 0.887-0.72 1.604-1.605 1.604H70.712c-0.887 0-1.603-0.718-1.603-1.604v-6.739c0-0.886 0.716-1.604 1.603-1.604h10.912c0.885 0 1.603 0.719 1.603 1.604V87.874z" data-fill-palette-color="accent"></path><path fill="#332885" d="M36.066 31.116h0.013 0.461c0 0.143-0.005 0.283-0.005 0.427 0 0.434 0.017 0.862 0.039 1.291 0.038 0.623 0.098 1.24 0.184 1.847 0.014 0.185 0.03 0.37 0.046 0.555 1.24 14.019 9.438 24.847 19.374 24.847 10.064 0 18.35-11.109 19.422-25.393 0.148-1.026 0.226-2.077 0.226-3.146 0-0.144-0.005-0.285-0.009-0.428h0.549 0.012c1.623 0 5.504-1.313 5.504-2.936 0-1.623-3.884-2.937-5.504-2.937h-0.012c-1.079-7.472-5.895-14.807-12.782-18.072l-0.397 5.249-0.278 3.389L62.397 15.8l0.267-3.778 0.371-5.277 0.077-1.086L59.89 5.522 59.886 5.65l-0.173 5.549-0.142 4.476-0.007 0.265-0.257 8.222h-0.557l0.358-13.065 0.152-5.582 0.053-1.913h-7.059l0.057 2.111 0.154 5.523 0.353 12.925h-0.557l-0.259-8.227-0.007-0.264-0.135-4.302-0.172-5.483-0.012-0.371-3.346 0.143 0.108 1.565 0.364 5.154 0.24 3.422-0.513 0.008-0.252-3.023-0.386-5.122c-6.396 3.497-10.783 10.462-11.813 17.58h-0.013c-1.621 0-5.502 1.313-5.502 2.937C30.563 29.801 34.444 31.116 36.066 31.116zM41.451 31.116h28.956c0.525 1.684 0.747 3.285 0.261 4.359l2.758-3.167c-0.013 0.84-0.076 1.67-0.194 2.478-0.939 12.54-8.214 22.293-17.052 22.293-8.69 0-15.871-9.439-16.998-21.686 0.765 0.191 1.704 0.563 2.723 1.276C41.904 36.666 41.465 34.039 41.451 31.116z" data-fill-palette-color="accent"></path></g></g><path d="M28.008 42.519l-1.543-1.044-2.597 3.839-2.668 0.516-2.293-1.547-0.516-2.672 2.596-3.839-1.546-1.044c-1.66 0.391-3.184 1.383-4.213 2.906-1.594 2.357-1.563 5.332-0.169 7.61L4.417 62.988c-0.9 1.331-0.553 3.145 0.782 4.046 1.333 0.899 3.147 0.553 4.047-0.783l10.642-15.744c2.629 0.442 5.401-0.638 6.996-2.992C27.914 45.987 28.267 44.206 28.008 42.519zM6.043 65.786c-0.642-0.437-0.813-1.311-0.38-1.956 0.437-0.644 1.311-0.813 1.956-0.373 0.646 0.431 0.813 1.308 0.379 1.948C7.56 66.052 6.688 66.221 6.043 65.786z" fill="#332885" data-fill-palette-color="accent"></path></svg></g></svg></g><g id="text-0"><path d="M14.273 48.121l-0.334 0.974-9.739-3.335c-0.048 0.139-0.121 0.445-0.219 0.918v0l-0.603 2.931-0.728-0.249 2.866-8.368 0.728 0.249-1.321 2.685c-0.21 0.428-0.34 0.715-0.389 0.86v0z" fill="#332885" data-fill-palette-color="accent"></path><path d="M12.9 38.105v0c-0.66-0.415-1.2-0.92-1.621-1.515-0.419-0.586-0.706-1.223-0.864-1.912-0.157-0.689-0.175-1.393-0.053-2.112 0.121-0.719 0.39-1.408 0.804-2.068v0c0.411-0.654 0.915-1.192 1.51-1.613 0.595-0.421 1.237-0.71 1.927-0.866 0.689-0.157 1.388-0.174 2.097-0.051 0.719 0.121 1.408 0.39 2.068 0.805v0c0.654 0.411 1.192 0.915 1.613 1.51 0.424 0.59 0.715 1.229 0.872 1.918 0.157 0.689 0.175 1.393 0.053 2.111-0.127 0.715-0.396 1.4-0.807 2.055v0c-0.415 0.66-0.917 1.202-1.507 1.626-0.595 0.421-1.237 0.71-1.926 0.867-0.689 0.157-1.391 0.172-2.107 0.045-0.719-0.121-1.405-0.388-2.059-0.8zM13.512 37.132v0c0.869 0.546 1.728 0.87 2.577 0.972 0.846 0.107 1.625-0.005 2.337-0.337 0.714-0.322 1.304-0.853 1.768-1.592v0c0.461-0.733 0.682-1.492 0.663-2.275-0.01-0.785-0.249-1.538-0.717-2.257-0.459-0.722-1.12-1.354-1.983-1.897v0c-0.863-0.543-1.719-0.865-2.569-0.966-0.846-0.107-1.628 0.004-2.346 0.332-0.714 0.322-1.302 0.85-1.763 1.583v0c-0.465 0.739-0.689 1.495-0.671 2.27 0.019 0.783 0.255 1.534 0.709 2.252 0.456 0.727 1.121 1.366 1.995 1.915z" fill="#332885" data-fill-palette-color="accent"></path><path d="M29.375 26.15l-10.298-5.456 0.849-0.715 8.802 4.704 0.069-0.058-2.002-6.153-3.114-1.652 0.842-0.707 8.775 4.686 0.069-0.058-3.605-9.036 0.849-0.714 3.613 11.08-0.253 0.212-6.694-3.564 2.35 7.219z" fill="#332885" data-fill-palette-color="accent"></path><path d="M42.479 16.57l-0.937 0.428-4.15-9.993 0.164-0.075 10.753 5.206 0.082-0.038-4.035-8.035 0.936-0.428 4.146 9.985-0.164 0.075-10.753-5.206-0.082 0.037z" fill="#332885" data-fill-palette-color="accent"></path><path d="M66.523 10.73l-1.029 0.037-0.375-10.287c-0.146 0.005-0.458 0.047-0.936 0.124v0l-2.952 0.487-0.028-0.769 8.839-0.322 0.028 0.769-2.98-0.271c-0.475-0.043-0.789-0.061-0.942-0.056v0z" fill="#332885" data-fill-palette-color="accent"></path><path d="M74.314 11.055l-1.093-0.19 5.832-9.74 0.925 0.161 2.194 11.134-1.083-0.188-1.001-5.216-3.387-0.589zM79.116 1.927l-0.098-0.017-2.147 4.182 3.141 0.546z" fill="#332885" data-fill-palette-color="accent"></path><path d="M86.487 13.494v0l0.415-0.815 0.083 0.033c0.242 0.46 0.558 0.869 0.948 1.229 0.389 0.359 0.81 0.628 1.263 0.805v0c0.639 0.25 1.227 0.275 1.762 0.076 0.529-0.201 0.909-0.596 1.139-1.185v0c0.129-0.329 0.177-0.664 0.146-1.006-0.04-0.337-0.17-0.718-0.391-1.14-0.215-0.42-0.547-0.915-0.998-1.484v0c-0.314-0.387-0.603-0.783-0.867-1.187-0.271-0.406-0.454-0.825-0.55-1.256-0.102-0.434-0.059-0.892 0.13-1.376v0c0.279-0.714 0.761-1.187 1.446-1.42 0.687-0.239 1.456-0.193 2.306 0.139v0c0.372 0.146 0.76 0.344 1.163 0.594 0.403 0.25 0.695 0.483 0.876 0.697v0l-0.374 0.766-0.084-0.033c-0.312-0.794-0.884-1.354-1.715-1.679v0c-0.602-0.235-1.145-0.272-1.631-0.112-0.485 0.161-0.829 0.502-1.033 1.024v0c-0.15 0.385-0.18 0.753-0.088 1.103 0.096 0.359 0.258 0.713 0.488 1.06 0.238 0.343 0.499 0.692 0.782 1.046v0c0.327 0.407 0.636 0.825 0.927 1.253 0.297 0.431 0.498 0.885 0.605 1.363 0.11 0.487 0.054 1.015-0.17 1.586v0c-0.206 0.528-0.508 0.943-0.905 1.245-0.403 0.3-0.874 0.478-1.41 0.533-0.534 0.049-1.096-0.042-1.685-0.272v0c-0.379-0.148-0.801-0.367-1.268-0.657-0.473-0.292-0.909-0.602-1.31-0.93z" fill="#332885" data-fill-palette-color="accent"></path><path d="M103.743 23.304l-1.144-0.753-1.16-7.273 6.684-1.774 1.086 0.714-6.763 1.221zM97.999 19.523l-0.86-0.566 5.825-8.849 0.86 0.566z" fill="#332885" data-fill-palette-color="accent"></path><path d="M110.732 30.207l-3.3-3.287 7.476-7.506 3.272 3.258-0.522 0.524-1.63-2.117c-0.288-0.372-0.489-0.614-0.602-0.726v0l-3.259 3.271c0.094 0.094 0.328 0.303 0.701 0.628v0l1.862 1.643-0.493 0.495-1.651-1.855c-0.326-0.372-0.536-0.604-0.63-0.699v0l-3.583 3.598c0.127 0.127 0.373 0.329 0.736 0.606v0l2.145 1.643z" fill="#332885" data-fill-palette-color="accent"></path><path d="M114.237 35.074l8.909-5.735 1.098 1.706c0.577 0.896 0.838 1.715 0.784 2.455-0.06 0.744-0.429 1.334-1.107 1.77v0c-0.527 0.339-1.065 0.464-1.614 0.374-0.546-0.085-1.065-0.38-1.558-0.888v0l-0.075 0.049c0.249 0.632 0.279 1.259 0.092 1.879-0.184 0.625-0.523 1.224-1.019 1.796v0c-0.459 0.518-0.795 0.956-1.008 1.315-0.207 0.355-0.317 0.671-0.328 0.948-0.008 0.283 0.042 0.575 0.149 0.879v0l-0.075 0.049-0.341-0.53c-0.238-0.37-0.367-0.718-0.388-1.046-0.024-0.333 0.072-0.688 0.288-1.065 0.217-0.377 0.559-0.824 1.028-1.339v0c0.715-0.809 1.123-1.535 1.224-2.179 0.101-0.643-0.036-1.256-0.411-1.84v0l-0.049-0.075 0.236-0.152 0.048 0.076c0.88 1.367 1.948 1.647 3.203 0.839v0c1.238-0.797 1.444-1.837 0.618-3.121v0l-0.541-0.84-8.605 5.54z" fill="#332885" data-fill-palette-color="accent"></path><path d="M120.202 45.11v0l0.881-0.242 0.032 0.084c-0.177 0.489-0.267 0.998-0.271 1.528-0.004 0.53 0.081 1.021 0.255 1.475v0c0.246 0.641 0.622 1.093 1.129 1.355 0.505 0.256 1.053 0.271 1.644 0.045v0c0.33-0.126 0.61-0.316 0.842-0.569 0.223-0.257 0.416-0.609 0.58-1.057 0.166-0.442 0.308-1.021 0.426-1.737v0c0.075-0.493 0.173-0.973 0.294-1.439 0.118-0.473 0.304-0.891 0.559-1.252 0.252-0.368 0.62-0.644 1.105-0.831v0c0.716-0.274 1.39-0.236 2.024 0.113 0.64 0.347 1.123 0.947 1.449 1.8v0c0.143 0.373 0.258 0.793 0.343 1.26 0.086 0.467 0.111 0.839 0.075 1.116v0l-0.818 0.239-0.032-0.084c0.377-0.765 0.407-1.565 0.087-2.399v0c-0.231-0.604-0.57-1.03-1.016-1.281-0.446-0.25-0.93-0.275-1.452-0.075v0c-0.386 0.148-0.677 0.374-0.875 0.678-0.201 0.313-0.353 0.67-0.455 1.074-0.094 0.407-0.176 0.835-0.247 1.282v0c-0.081 0.516-0.181 1.026-0.303 1.529-0.119 0.509-0.319 0.964-0.601 1.365-0.286 0.409-0.715 0.723-1.287 0.943v0c-0.529 0.203-1.039 0.259-1.53 0.168-0.494-0.096-0.941-0.324-1.344-0.684-0.396-0.362-0.707-0.839-0.933-1.43v0c-0.145-0.38-0.268-0.839-0.367-1.379-0.102-0.546-0.167-1.078-0.194-1.595z" fill="#332885" data-fill-palette-color="accent"></path><path d="M4.248 90.647l-0.337-0.983 9.74-3.335c-0.048-0.139-0.176-0.422-0.387-0.85v0l-1.324-2.695 0.738-0.253 2.865 8.369-0.737 0.252-0.603-2.931c-0.097-0.467-0.169-0.77-0.216-0.909v0z" fill="#332885" data-fill-palette-color="accent"></path><path d="M12.895 97.222v0c0.66-0.415 1.349-0.683 2.068-0.805 0.719-0.121 1.423-0.103 2.112 0.054 0.689 0.157 1.327 0.445 1.912 0.863 0.595 0.421 1.1 0.961 1.515 1.621v0c0.415 0.66 0.681 1.346 0.799 2.06 0.127 0.715 0.112 1.417-0.045 2.106-0.157 0.689-0.446 1.331-0.866 1.927-0.424 0.59-0.966 1.092-1.627 1.506v0c-0.654 0.411-1.339 0.681-2.054 0.808-0.719 0.121-1.423 0.103-2.111-0.054-0.689-0.157-1.331-0.446-1.927-0.866-0.586-0.419-1.086-0.958-1.501-1.618v0c-0.415-0.66-0.686-1.348-0.813-2.063-0.118-0.713-0.098-1.414 0.059-2.103 0.157-0.689 0.446-1.331 0.866-1.926 0.421-0.595 0.958-1.098 1.613-1.51zM13.507 98.195v0c-0.869 0.546-1.533 1.18-1.992 1.902-0.459 0.722-0.696 1.472-0.709 2.252-0.015 0.789 0.207 1.55 0.668 2.283v0c0.461 0.733 1.051 1.264 1.769 1.592 0.709 0.326 1.49 0.436 2.345 0.332 0.846-0.107 1.7-0.432 2.563-0.975v0c0.863-0.543 1.526-1.172 1.989-1.888 0.459-0.722 0.698-1.474 0.718-2.257 0.021-0.793-0.199-1.555-0.66-2.289v0c-0.461-0.733-1.049-1.261-1.763-1.583-0.709-0.326-1.488-0.438-2.337-0.337-0.853 0.096-1.717 0.418-2.591 0.968z" fill="#332885" data-fill-palette-color="accent"></path><path d="M22.281 117.608l3.619-11.087 0.849 0.714-3.133 9.485 0.069 0.058 5.719-3.026 1.101-3.358 0.849 0.714-3.129 9.449 0.076 0.065 8.292-5.107 0.841 0.708-10.296 5.471-0.252-0.213 2.357-7.211-6.709 3.55z" fill="#332885" data-fill-palette-color="accent"></path><path d="M38.075 128.397l-0.937-0.428 4.841-9.678 0.164 0.075 3.109 11.542 0.082 0.037 3.43-8.322 0.936 0.428-4.831 9.682-0.173-0.079-3.1-11.538-0.082-0.038z" fill="#332885" data-fill-palette-color="accent"></path><path d="M66.147 135.188l-1.039-0.037 0.375-10.288c-0.146-0.005-0.457 0.013-0.932 0.056v0l-2.99 0.271 0.028-0.779 8.84 0.322-0.029 0.779-2.952-0.488c-0.471-0.077-0.779-0.118-0.926-0.123v0z" fill="#332885" data-fill-palette-color="accent"></path><path d="M76.129 134.714l-1.093 0.19 2.201-11.147 0.925-0.161 5.835 9.75-1.093 0.19-2.703-4.572-3.387 0.589zM77.569 124.501l-0.089 0.016-0.619 4.662 3.141-0.546z" fill="#332885" data-fill-palette-color="accent"></path><path d="M90.104 131.09v0l-0.247-0.88 0.084-0.033c0.49 0.173 1 0.26 1.529 0.261 0.53 0.001 1.021-0.088 1.474-0.265v0c0.639-0.25 1.088-0.629 1.347-1.138 0.253-0.507 0.264-1.055 0.034-1.644v0c-0.129-0.329-0.32-0.608-0.575-0.838-0.258-0.221-0.609-0.413-1.051-0.576-0.449-0.161-1.032-0.298-1.749-0.411v0c-0.496-0.078-0.976-0.173-1.442-0.285-0.468-0.118-0.887-0.301-1.256-0.55-0.372-0.255-0.651-0.622-0.837-1.1v0c-0.279-0.714-0.247-1.392 0.096-2.033 0.345-0.636 0.943-1.12 1.793-1.452v0c0.372-0.146 0.792-0.263 1.258-0.352 0.466-0.089 0.84-0.121 1.121-0.095v0l0.235 0.82-0.084 0.033c-0.762-0.375-1.561-0.398-2.399-0.071v0c-0.602 0.235-1.025 0.58-1.27 1.033-0.247 0.447-0.27 0.928-0.069 1.443v0c0.15 0.385 0.379 0.678 0.687 0.88 0.314 0.199 0.672 0.346 1.073 0.439 0.41 0.097 0.838 0.177 1.284 0.239v0c0.519 0.083 1.034 0.183 1.544 0.298 0.504 0.118 0.96 0.315 1.369 0.592 0.402 0.279 0.716 0.707 0.942 1.284v0c0.206 0.528 0.266 1.037 0.179 1.529-0.087 0.492-0.309 0.94-0.666 1.344-0.36 0.398-0.837 0.713-1.433 0.946v0c-0.379 0.148-0.837 0.274-1.377 0.377-0.545 0.106-1.077 0.174-1.594 0.205z" fill="#332885" data-fill-palette-color="accent"></path><path d="M109.569 120.876l-1.136 0.748-7.138-1.811 0.999-6.844 1.094-0.72-1.556 6.708zM103.825 124.657l-0.86 0.566-5.83-8.858 0.86-0.566z" fill="#332885" data-fill-palette-color="accent"></path><path d="M118.217 112.623l-3.306 3.294-7.485-7.513 3.272-3.259 0.522 0.524-2.116 1.629c-0.373 0.287-0.616 0.486-0.73 0.599v0l3.259 3.271c0.094-0.094 0.305-0.327 0.631-0.698v0l1.657-1.863 0.494 0.496-1.869 1.65c-0.373 0.324-0.606 0.534-0.701 0.628v0l3.583 3.597c0.127-0.127 0.333-0.374 0.617-0.741v0l1.65-2.138z" fill="#332885" data-fill-palette-color="accent"></path><path d="M123.148 105.993l-8.916-5.741 1.098-1.706c0.581-0.902 1.22-1.477 1.919-1.725 0.696-0.257 1.384-0.167 2.061 0.27v0c0.527 0.339 0.864 0.775 1.013 1.306 0.151 0.541 0.098 1.141-0.159 1.799v0l0.075 0.049c0.473-0.488 1.03-0.775 1.672-0.861 0.645-0.092 1.331-0.03 2.057 0.183v0c0.665 0.198 1.202 0.318 1.611 0.36 0.415 0.045 0.751 0.016 1.008-0.088 0.257-0.104 0.501-0.268 0.733-0.492v0l0.075 0.049-0.335 0.521c-0.242 0.375-0.507 0.64-0.797 0.794-0.29 0.154-0.653 0.214-1.09 0.179-0.433-0.041-0.981-0.168-1.644-0.382v0c-1.033-0.316-1.863-0.387-2.491-0.212-0.633 0.171-1.137 0.548-1.512 1.13v0l-0.049 0.076-0.226-0.146 0.048-0.076c0.88-1.367 0.693-2.454-0.562-3.263v0c-1.238-0.797-2.27-0.554-3.096 0.729v0l-0.541 0.84 8.605 5.541z" fill="#332885" data-fill-palette-color="accent"></path><path d="M129.482 93.776v0l-0.817-0.41 0.032-0.084c0.458-0.245 0.865-0.564 1.223-0.955 0.357-0.391 0.622-0.814 0.796-1.268v0c0.246-0.641 0.267-1.228 0.065-1.763-0.204-0.528-0.602-0.905-1.193-1.131v0c-0.33-0.126-0.665-0.173-1.006-0.14-0.337 0.042-0.715 0.172-1.134 0.39-0.421 0.224-0.915 0.563-1.481 1.017v0c-0.391 0.314-0.785 0.605-1.181 0.874-0.402 0.267-0.819 0.453-1.252 0.559-0.439 0.103-0.898 0.063-1.378-0.121v0c-0.716-0.274-1.195-0.754-1.439-1.44-0.238-0.683-0.193-1.451 0.134-2.304v0c0.143-0.373 0.338-0.762 0.586-1.167 0.248-0.405 0.476-0.702 0.685-0.893v0l0.765 0.379-0.033 0.084c-0.79 0.311-1.346 0.886-1.667 1.726v0c-0.231 0.604-0.262 1.148-0.092 1.635 0.164 0.484 0.505 0.825 1.021 1.023v0c0.386 0.148 0.757 0.176 1.113 0.084 0.359-0.098 0.708-0.264 1.048-0.498 0.348-0.238 0.695-0.501 1.04-0.79v0c0.411-0.328 0.831-0.641 1.26-0.94 0.426-0.293 0.879-0.498 1.359-0.614 0.477-0.11 1.005-0.054 1.584 0.168v0c0.529 0.203 0.946 0.502 1.251 0.897 0.305 0.395 0.487 0.861 0.546 1.397 0.052 0.534-0.036 1.099-0.265 1.697v0c-0.145 0.38-0.361 0.803-0.648 1.271-0.289 0.474-0.596 0.913-0.922 1.317z" fill="#332885" data-fill-palette-color="accent"></path><path d="M1.308 67.662c0-2.282 1.85-4.131 4.131-4.131 2.282 0 4.131 1.85 4.131 4.131 0 2.282-1.85 4.131-4.131 4.132-2.282 0-4.131-1.85-4.131-4.132z" fill="#332885" data-fill-palette-color="accent"></path><path d="M125.618 67.662c0-2.282 1.85-4.131 4.131-4.131 2.282 0 4.131 1.85 4.131 4.131 0 2.282-1.85 4.131-4.131 4.132-2.282 0-4.131-1.85-4.131-4.132z" fill="#332885" data-fill-palette-color="accent"></path></g><g id="text-1"></g></svg></g></svg></g></svg></g><defs></defs></svg><rect width="395.52" height="96.73203786056924" fill="none" stroke="none" visibility="hidden"></rect></g></svg></g></svg>